<svg width="280" height="199" viewBox="0 0 280 199" fill="none" xmlns="http://www.w3.org/2000/svg">
<g clip-path="url(#clip0_643_315)">
<path d="M280 118.532C280 113.705 278.73 111.254 277.495 108.881C276.26 106.509 275.096 104.267 275.096 99.6546C275.009 96.54 275.538 93.4283 276.676 90.3563C277.843 87.1904 278.388 83.984 278.303 80.7747C278.303 75.9481 277.015 73.4938 275.775 71.1216C274.534 68.7494 273.351 66.5095 273.351 61.8974C273.351 57.2854 274.522 55.0402 275.693 52.668C276.863 50.2958 278.162 47.8441 278.162 43.0202C278.241 39.8179 277.746 36.618 276.682 33.4519C275.658 30.3703 275.19 27.2562 275.283 24.1403C275.23 21.0185 275.577 17.8979 276.325 14.7944C277.089 11.6293 277.445 8.44684 277.39 5.26308C277.422 4.95913 277.315 4.65545 277.075 4.37112C276.836 4.0868 276.468 3.828 275.997 3.61099C274.241 2.85114 271.566 2.88556 268.974 2.91998C268.441 2.91998 267.903 2.91998 267.364 2.91998C256.899 2.91998 251.813 2.39046 246.429 1.86094C241.044 1.33143 235.519 0.754256 224.598 0.754256C217.348 0.718012 210.104 0.958024 202.943 1.47175C195.977 1.97595 188.928 2.20979 181.873 2.17071C171.409 2.17071 166.323 1.64119 160.938 1.11168C155.554 0.582163 150.023 -0.000303932 139.108 -0.000303932C131.86 -0.0361689 124.617 0.195823 117.453 0.69336C110.483 1.18251 103.435 1.40922 96.3828 1.37114C85.725 1.37114 80.3053 1.29436 75.0671 1.22288C69.8289 1.15139 64.3391 1.07461 53.6228 1.07461C42.9065 1.07461 37.5453 0.995185 32.3013 0.921052C27.0573 0.84692 21.5791 0.767494 10.8569 0.767494C6.37958 0.767494 3.36547 2.57314 3.36547 5.26838C3.36547 9.98901 3.36547 12.348 3.36547 14.707C3.36547 17.066 3.36547 19.4276 3.36547 24.1483C3.4308 27.2675 3.01818 30.3849 2.13056 33.4783C1.22293 36.6446 0.800509 39.8355 0.86635 43.0282C0.86635 47.77 1.12386 50.1766 1.36968 52.5118C1.61549 54.8469 1.873 57.2086 1.873 61.908C1.873 66.6075 1.6506 68.9956 1.43405 71.3069C1.2175 73.6183 0.989234 76.0461 0.989234 80.7853C0.875711 84.0274 1.6483 87.2634 3.28939 90.4198C4.45993 92.8026 5.50173 95.0425 5.50173 99.6625C5.50173 104.283 4.21998 106.501 2.86801 108.871C1.51603 111.24 0.0996094 113.705 0.0996094 118.542C0.0996094 123.274 0.240129 125.691 0.374742 128.008C0.509354 130.324 0.649802 132.715 0.649802 137.422C0.558761 140.638 1.15661 143.851 2.43491 147.014C3.67462 150.077 4.25088 153.187 4.15558 156.3C4.15558 161.049 4.51256 163.464 4.85202 165.799C5.19147 168.134 5.53681 170.488 5.53681 175.177C5.53681 179.799 4.47748 182.045 3.35961 184.425C2.24175 186.805 1.08876 189.238 1.08876 194.057C1.08876 196.439 6.13382 198.028 10.8394 198.028C21.5557 198.028 27.0046 197.962 32.2779 197.901C37.5512 197.84 42.9416 197.776 53.6052 197.776C60.6712 197.743 67.7332 197.944 74.7336 198.38C81.9089 198.825 89.1466 199.032 96.3887 199C103.637 199.036 110.88 198.803 118.044 198.303C125.014 197.817 132.061 197.591 139.114 197.628C146.358 197.662 153.598 197.443 160.769 196.974C167.758 196.515 174.817 196.302 181.879 196.339C192.356 196.339 197.448 196.826 202.838 197.342C208.228 197.859 213.736 198.401 224.645 198.401C235.408 198.401 240.886 198.216 246.177 198.039C251.468 197.861 256.794 197.684 267.405 197.684C268.611 197.684 270.331 197.618 271.578 197.059C272.977 196.418 272.959 195.523 272.942 194.488C272.942 194.351 272.942 194.223 272.942 194.062C272.846 190.948 273.434 187.838 274.698 184.777C275.995 181.613 276.603 178.399 276.512 175.182C276.579 171.987 276.145 168.794 275.213 165.627C274.299 162.536 273.877 159.42 273.948 156.302C273.948 151.579 273.908 149.178 273.872 146.856C273.837 144.534 273.79 142.138 273.79 137.422C273.79 132.839 275.277 130.61 276.851 128.251C278.426 125.892 280 123.39 280 118.532Z" fill="white"/>
</g>
<path d="M157.345 51.3021C157.376 52.3569 157.348 53.4126 157.261 54.4643C157.099 55.6836 157.662 55.926 158.718 55.9822C161.923 56.1214 165.06 56.947 167.918 58.4031C171.437 60.2162 174.084 62.8549 175.527 66.5794C175.794 67.2646 176.252 67.4332 176.861 67.6335C179.961 68.6419 181.788 71.625 181.359 74.9313C181.139 76.4573 180.4 77.8611 179.264 78.9058C178.129 79.9505 176.667 80.572 175.126 80.6656C173.599 80.7346 172.095 80.286 170.856 79.3929C169.618 78.4998 168.719 77.2146 168.305 75.7465C167.855 74.194 167.992 72.5304 168.691 71.0726C169.39 69.6147 170.602 68.4644 172.095 67.8408C172.898 67.4894 172.905 67.2259 172.549 66.5513C171.733 64.9928 170.617 63.6103 169.265 62.4828C167.912 61.3554 166.351 60.5052 164.669 59.9808C159.026 58.0363 152.893 58.0289 147.244 59.9597C145.583 60.4783 144.042 61.3234 142.712 62.4451C141.383 63.5668 140.291 64.9426 139.502 66.4916C139.174 67.1275 139.104 67.4613 139.938 67.8267C143.081 69.2006 144.647 72.4156 143.834 75.5743C143.021 78.7331 139.963 80.9116 136.869 80.641C133.487 80.3459 130.985 77.8301 130.643 74.4148C130.348 71.4458 132.304 68.5541 135.299 67.5773C135.806 67.4086 136.211 67.2856 136.44 66.6813C138.618 60.8873 143.162 57.9534 148.92 56.5339C150.364 56.1614 151.846 55.9539 153.337 55.9155C154.22 55.9155 154.54 55.6063 154.495 54.6892C154.414 53.1151 154.466 51.5269 154.473 49.9563C154.473 46.2986 156.663 44.0534 160.34 44.0042C166.524 43.9234 172.504 44.9986 177.994 47.8973C191.368 54.9738 198.386 66.1261 198.949 81.277C199.005 82.809 198.991 84.3444 198.949 85.8764C198.928 86.558 199.128 86.7407 199.822 86.7724C202.528 86.8953 204.439 88.8032 204.481 91.312C204.524 93.8207 202.662 95.8446 199.98 95.9957C199.051 96.0519 198.949 96.4068 198.949 97.1833C198.97 108.97 198.97 120.756 198.949 132.541C198.949 133.381 199.16 133.595 200.005 133.655C201.204 133.702 202.338 134.21 203.171 135.072C204.004 135.934 204.471 137.085 204.474 138.282C204.474 140.791 202.602 142.801 199.927 142.959C199.097 143.008 198.924 143.237 198.938 144.013C198.984 146.947 198.963 149.885 198.938 152.822C198.938 154.273 198.509 154.73 197.08 154.751C195.194 154.779 193.304 154.783 191.417 154.751C190.048 154.726 189.601 154.277 189.577 152.913C189.545 151.336 189.601 149.751 189.555 148.18C189.46 145.109 187.331 143.012 184.276 143.008C169.534 142.994 154.79 142.994 140.044 143.008C136.957 143.008 134.764 145.218 134.722 148.321C134.694 149.853 134.684 151.388 134.722 152.92C134.757 154.129 134.219 154.74 133.026 154.751C131.051 154.751 129.077 154.751 127.103 154.751C125.903 154.751 125.375 154.126 125.382 152.934C125.403 149.997 125.382 147.063 125.403 144.129C125.403 143.36 125.318 143.001 124.347 142.952C123.152 142.925 122.015 142.431 121.18 141.578C120.344 140.724 119.877 139.578 119.877 138.384C119.832 137.186 120.265 136.019 121.08 135.139C121.896 134.258 123.027 133.736 124.227 133.687C125.283 133.613 125.389 133.233 125.389 132.351C125.363 120.698 125.363 109.043 125.389 97.3871C125.389 96.5333 125.332 96.0624 124.248 96.0027C121.57 95.8551 119.8 93.8313 119.884 91.2312C119.969 88.6311 121.961 86.7688 124.734 86.7688C143.382 86.7688 162.036 86.7688 180.693 86.7688H188.855C189.337 86.7688 189.777 86.8637 189.809 86.0872C190.076 79.5975 189.358 73.3116 185.902 67.623C180.429 58.6245 172.5 53.5438 161.899 52.8024C160.844 52.7321 159.823 52.6935 159.679 51.3126C159.658 50.1882 159.995 49.7982 161.157 49.6577C162.565 49.4855 163.972 49.7771 165.342 49.9915C171.149 50.8695 176.602 53.3249 181.105 57.089C187.574 62.4368 191.312 69.3446 192.628 77.5771C192.967 80.0058 193.085 82.4602 192.98 84.9101C192.952 86.2804 193.832 86.8391 195.12 86.3613C195.581 86.1926 195.655 85.8377 195.683 85.4301C196.387 74.2532 193.318 64.4923 185.008 56.6393C178.276 50.2761 170.244 47.2368 161.034 47.1735C158.433 47.1524 157.866 47.6865 157.676 50.2304C157.71 50.617 157.591 51.0015 157.345 51.3021Z" fill="#040404"/>
<path d="M78.3619 146.775C78.3021 145.559 78.3232 144.069 79.1362 142.731C79.3755 142.33 79.2312 142.176 78.8969 141.909C75.6414 139.312 75.1451 136.315 77.3307 132.822C79.3574 129.523 82.1296 126.743 85.4254 124.706C86.2666 124.189 86.1681 123.982 85.51 123.388C82.9161 121.048 81.4555 118.149 81.5575 114.604C81.5575 113.961 81.4168 113.715 80.7376 113.589C76.9506 112.886 75.0818 109.562 76.5353 105.996C77.8305 102.833 79.8859 100.293 83.4792 99.6464C86.0836 99.1826 88.4065 100.483 89.4623 102.904C89.8354 103.743 90.2049 103.733 90.9228 103.497C94.2778 102.38 97.9072 102.389 101.256 103.525C101.918 103.75 102.248 103.768 102.607 102.981C104.128 99.6569 107.925 98.5185 111.001 100.476C113.782 102.232 115.774 104.657 115.999 108.072C116.189 110.95 114.327 113.107 111.462 113.585C110.811 113.694 110.459 113.792 110.505 114.6C110.702 118.181 109.192 121.055 106.595 123.385C105.891 124.014 105.916 124.235 106.718 124.73C110.049 126.798 112.846 129.618 114.883 132.963C116.939 136.266 116.39 139.491 113.303 141.859C112.828 142.211 112.86 142.432 113.074 142.913C114.13 145.254 114.021 147.727 113.504 150.13C112.955 152.671 110.663 154.424 108.013 154.698C106.761 154.839 105.497 154.588 104.393 153.982C103.29 153.375 102.401 152.442 101.851 151.311C101.439 150.447 100.992 150.317 100.154 150.454C97.4228 150.902 94.6363 150.902 91.9048 150.454C91.2255 150.345 90.7574 150.303 90.3526 151.135C89.739 152.462 88.6787 153.531 87.3564 154.157C86.0341 154.783 84.5337 154.926 83.1167 154.561C80.3011 153.876 78.383 151.353 78.3549 148.237C78.3584 147.85 78.3619 147.457 78.3619 146.775Z" fill="#040404"/>
<path d="M157.345 51.3019C157.293 50.6943 157.271 50.0845 157.282 49.4748C157.384 47.8163 158.398 46.8747 160.097 46.8044C176.639 46.1017 191.656 57.6264 195.32 73.74C196.242 77.8018 196.165 81.9022 196.182 86.0132C196.182 86.5824 195.968 86.7335 195.415 86.7722C192.638 86.976 192.579 86.9935 192.652 84.2283C192.871 76.0204 190.794 68.5363 185.578 62.0923C179.458 54.5309 171.462 50.5429 161.748 49.9561C160.692 49.8929 159.925 50.1494 159.707 51.2948L157.345 51.3019Z" fill="#FFD983"/>
<path d="M161.048 74.2634C161.081 75.0447 160.876 75.8178 160.46 76.4805C159.601 78.0019 158.746 79.5233 157.831 81.0096C156.775 82.6996 154.977 82.7313 153.928 81.0623C152.953 79.5092 152.038 77.9 151.165 76.3048C150.796 75.6537 150.61 74.9158 150.624 74.168C150.638 73.4202 150.853 72.6899 151.246 72.0533C151.535 71.5144 151.858 70.9945 152.214 70.4967C153.875 68.3218 154.941 65.9957 154.487 63.1532C154.336 62.208 154.815 61.5053 155.874 61.5053C156.076 61.4852 156.279 61.5135 156.468 61.5879C156.656 61.6623 156.824 61.7806 156.957 61.9329C157.09 62.0853 157.185 62.2672 157.234 62.4636C157.282 62.66 157.283 62.8651 157.236 63.0618C156.648 66.3506 158.32 68.8277 160.02 71.3224C160.622 72.2008 161.111 73.1214 161.048 74.2634Z" fill="#040404"/>
<path d="M162.146 93.3145H125.544C125.062 93.342 124.579 93.3125 124.104 93.2267C123.688 93.1499 123.312 92.9273 123.045 92.5988C122.778 92.2704 122.637 91.8576 122.647 91.4347C122.622 91.0119 122.75 90.5942 123.009 90.2584C123.268 89.9227 123.639 89.6916 124.055 89.6076C124.525 89.5085 125.004 89.4637 125.484 89.4741C149.923 89.4741 174.361 89.4741 198.798 89.4741C199.279 89.4597 199.761 89.4986 200.234 89.5901C200.652 89.6571 201.031 89.876 201.297 90.2049C201.563 90.5337 201.698 90.9492 201.677 91.3715C201.694 92.3904 201.121 93.0123 200.17 93.2548C199.738 93.326 199.298 93.346 198.861 93.3145H162.146Z" fill="#FED883"/>
<path d="M162.237 136.441H198.84C199.234 136.42 199.629 136.427 200.022 136.462C201.022 136.603 201.606 137.197 201.645 138.219C201.684 139.241 201.156 139.976 200.082 140.152C199.646 140.201 199.207 140.215 198.769 140.194H125.565C123.604 140.194 122.668 139.6 122.644 138.349C122.619 137.098 123.573 136.448 125.505 136.448L162.237 136.441Z" fill="#FFD983"/>
<path d="M141.455 114.769C141.455 120.64 141.434 126.511 141.476 132.383C141.476 133.335 141.286 133.704 140.255 133.641C138.765 133.556 137.272 133.556 135.782 133.641C134.898 133.686 134.701 133.384 134.705 132.544C134.737 125.008 134.705 117.471 134.705 109.934C134.705 105.718 134.747 101.501 134.677 97.313C134.677 96.2343 135.004 95.9849 136.004 96.0411C137.41 96.1241 138.82 96.1241 140.227 96.0411C141.23 95.9778 141.476 96.3151 141.469 97.2919C141.434 103.111 141.455 108.94 141.455 114.769Z" fill="#FFFEFF"/>
<path d="M150.782 114.762C150.782 108.936 150.806 103.11 150.761 97.2848C150.761 96.3361 150.933 95.9566 151.968 96.0304C153.374 96.1206 154.785 96.1206 156.191 96.0304C157.201 95.9742 157.543 96.2518 157.532 97.3235C157.472 102.538 157.504 107.748 157.504 112.963C157.504 119.445 157.483 125.928 157.529 132.411C157.529 133.405 157.268 133.693 156.29 133.633C154.883 133.547 153.473 133.547 152.066 133.633C151.067 133.69 150.747 133.433 150.757 132.369C150.813 126.501 150.782 120.633 150.782 114.762Z" fill="white"/>
<path d="M173.542 114.871C173.542 120.738 173.521 126.61 173.564 132.478C173.564 133.398 173.317 133.683 172.395 133.634C170.95 133.554 169.501 133.554 168.056 133.634C167.091 133.69 166.806 133.437 166.817 132.428C166.869 126.297 166.845 120.166 166.845 114.034C166.845 108.413 166.862 102.822 166.824 97.2181C166.824 96.3362 167 95.9743 167.961 96.0305C169.406 96.113 170.855 96.113 172.3 96.0305C173.275 95.9778 173.574 96.2589 173.564 97.2638C173.518 103.135 173.542 109.003 173.542 114.871Z" fill="white"/>
<path d="M182.903 114.769C182.903 109.031 182.953 103.294 182.865 97.5523C182.865 96.2277 183.248 95.9185 184.473 96.0239C185.742 96.1205 187.016 96.1205 188.285 96.0239C189.302 95.9606 189.626 96.2523 189.615 97.3169C189.562 103.403 189.59 109.488 189.59 115.588C189.59 121.21 189.566 126.796 189.611 132.401C189.611 133.367 189.4 133.704 188.39 133.638C186.984 133.549 185.573 133.549 184.167 133.638C183.167 133.697 182.847 133.434 182.858 132.369C182.932 126.505 182.903 120.637 182.903 114.769Z" fill="white"/>
<path d="M131.999 114.762C131.999 120.584 131.97 126.41 132.02 132.235C132.02 133.289 131.787 133.683 130.661 133.641C128.152 133.567 128.152 133.641 128.152 131.181C128.152 119.937 128.173 108.669 128.12 97.4115C128.12 96.2168 128.472 95.9463 129.595 95.9849C131.995 96.0657 131.999 96.006 131.999 98.4445V114.762Z" fill="#F19745"/>
<path d="M144.211 114.762C144.211 108.982 144.25 103.198 144.179 97.4183C144.179 96.2131 144.531 95.9601 145.657 96.0128C148.051 96.0936 148.051 96.0339 148.051 98.4934C148.051 109.702 148.051 120.914 148.075 132.126C148.075 133.289 147.836 133.728 146.579 133.672C144.214 133.567 144.211 133.644 144.211 131.332V114.762Z" fill="#F19745"/>
<path d="M164.04 114.903C164.04 120.683 164.015 126.466 164.064 132.246C164.064 133.3 163.818 133.683 162.695 133.651C160.274 133.578 160.27 133.651 160.27 131.245C160.27 120.029 160.291 108.817 160.242 97.605C160.242 96.3927 160.453 95.9184 161.791 95.9887C164.036 96.1117 164.04 96.0203 164.04 98.2163V114.903Z" fill="#F29745"/>
<path d="M192.388 114.762C192.388 108.94 192.42 103.114 192.364 97.2887C192.364 96.21 192.695 95.9781 193.698 96.0027C196.161 96.0554 196.161 96.0027 196.161 98.4025C196.161 109.615 196.161 120.827 196.189 132.039C196.189 133.258 195.961 133.725 194.63 133.655C192.406 133.539 192.399 133.627 192.399 131.452L192.388 114.762Z" fill="#F29745"/>
<path d="M180.095 114.765C180.095 120.587 180.071 126.413 180.12 132.239C180.12 133.293 179.895 133.686 178.758 133.644C176.333 133.567 176.329 133.644 176.329 131.241C176.329 119.997 176.354 108.729 176.298 97.4747C176.298 96.2168 176.681 95.9497 177.843 95.9919C180.092 96.0727 180.095 96.013 180.095 98.202V114.765Z" fill="#F29745"/>
<path d="M174.774 77.8477C174.26 77.8613 173.748 77.7724 173.268 77.5862C172.789 77.4 172.351 77.1203 171.981 76.7634C171.611 76.4065 171.316 75.9796 171.114 75.5076C170.911 75.0356 170.804 74.5279 170.8 74.0143C170.802 72.9576 171.219 71.9437 171.963 71.1912C172.706 70.4387 173.715 70.0078 174.774 69.9912C175.809 70.0278 176.791 70.4584 177.518 71.1948C178.245 71.9311 178.662 72.9173 178.684 73.9511C178.688 74.4646 178.59 74.9738 178.395 75.4489C178.2 75.924 177.912 76.3556 177.548 76.7183C177.184 77.0811 176.751 77.3678 176.275 77.5617C175.798 77.7557 175.288 77.8529 174.774 77.8477Z" fill="#E3EA9E"/>
<path d="M137.27 77.8407C136.755 77.8408 136.245 77.7382 135.77 77.539C135.295 77.3397 134.864 77.0478 134.504 76.6803C134.143 76.3128 133.86 75.8771 133.67 75.3988C133.48 74.9205 133.388 74.4092 133.399 73.8949C133.426 72.8577 133.857 71.8719 134.6 71.1465C135.343 70.4211 136.34 70.013 137.379 70.0088C138.418 70.051 139.4 70.4892 140.124 71.2332C140.848 71.9771 141.259 72.97 141.272 74.0073C141.261 74.5214 141.149 75.0283 140.943 75.4992C140.736 75.9701 140.438 76.3957 140.067 76.7517C139.695 77.1077 139.257 77.3871 138.777 77.5739C138.297 77.7608 137.785 77.8514 137.27 77.8407Z" fill="#F27EA7"/>
<path d="M105.486 127.239C106.98 128.159 108.345 129.273 109.544 130.552C109.773 130.781 110.171 131.027 109.798 131.417C109.076 132.179 108.355 132.952 107.577 133.655C107.112 134.073 107.014 133.462 106.838 133.24C106.233 132.481 105.543 131.937 104.624 132.671C103.79 133.342 104.072 134.14 104.624 134.878C105.072 135.522 105.413 136.234 105.634 136.986C106.338 139.161 106.338 139.157 104.406 140.236C104.163 140.338 103.942 140.486 103.755 140.672C102.629 142.144 100.978 142.144 99.3872 142.186C96.4063 142.263 93.4217 142.33 90.4478 141.996C90.2332 141.988 90.0224 141.938 89.8277 141.847C89.6331 141.757 89.4586 141.628 89.3145 141.469C88.6266 140.663 87.7138 140.08 86.6925 139.793C85.9886 139.611 85.9147 139.189 86.0661 138.616C86.418 137.263 86.7313 135.89 87.6006 134.751C88.2024 133.961 88.2657 133.195 87.407 132.601C86.5482 132.007 85.869 132.355 85.415 133.145C84.961 133.936 84.6161 133.725 84.0846 133.184C81.8604 130.925 81.8392 130.932 84.2993 128.947C85.0771 128.314 85.8197 127.626 86.7453 127.19C87.3471 126.937 87.8575 127.243 88.3678 127.478C90.7233 128.558 93.2794 129.134 95.8713 129.168C98.5519 129.216 101.208 128.65 103.635 127.513C104.219 127.243 104.8 126.905 105.486 127.239Z" fill="#80ADDC"/>
<path d="M84.9538 117.759C83.7783 115.05 84.2816 112.513 85.9217 110.201C90.4336 103.849 101.706 103.852 106.197 110.201C107.77 112.429 108.344 114.867 107.299 117.52C105.873 119.899 103.427 120.436 100.992 121.006C100.39 121.146 99.7285 121.487 99.1338 120.932C99.6441 120.229 100.267 119.607 100.542 118.743C100.964 117.383 100.221 116.034 98.824 115.957C96.986 115.853 95.1435 115.853 93.3055 115.957C91.8977 116.037 91.1305 117.492 91.6479 118.894C91.9451 119.578 92.3622 120.204 92.8797 120.742C92.875 120.808 92.8559 120.871 92.8239 120.929C92.7919 120.986 92.7477 121.036 92.6943 121.075C92.641 121.113 92.5798 121.139 92.5152 121.152C92.4505 121.164 92.3839 121.162 92.32 121.146C89.4834 120.837 86.8121 120.173 84.9538 117.759Z" fill="#F7B6B1"/>
<path d="M81.1881 145.425C81.4908 143.373 82.8141 142.165 84.7462 142.193C86.6784 142.221 87.9877 143.518 88.2059 145.555C88.3386 146.46 88.3124 147.38 88.1285 148.275C86.6573 150.151 83.6236 150.485 81.7935 148.978C81.5496 148.794 81.3584 148.55 81.2392 148.269C81.1199 147.989 81.0768 147.682 81.1141 147.379C81.188 146.732 81.079 146.072 81.1881 145.425Z" fill="#F7B5B0"/>
<path d="M103.956 148.254C103.938 147.383 103.878 146.497 103.913 145.644C103.922 144.739 104.287 143.874 104.928 143.235C105.569 142.596 106.435 142.233 107.341 142.225C107.801 142.204 108.259 142.274 108.692 142.431C109.124 142.587 109.521 142.827 109.86 143.138C110.199 143.448 110.473 143.821 110.667 144.238C110.862 144.654 110.971 145.104 110.991 145.563C111.047 146.385 110.991 147.218 110.991 148.047C109.516 150.433 105.909 150.538 103.956 148.254Z" fill="#F7B5B0"/>
<path d="M78.8757 108.255C78.8757 105.953 81.6456 102.703 83.8382 102.331C85.2776 102.088 86.886 103.205 87.2379 104.614C87.3893 105.226 86.974 105.38 86.6432 105.623C85.1519 106.703 83.9077 108.088 82.9935 109.685C82.1101 111.22 80.3222 111.276 79.3368 109.794C79.0149 109.347 78.8525 108.805 78.8757 108.255Z" fill="#E27B7A"/>
<path d="M107.827 102.289C108.974 102.338 109.882 102.928 110.709 103.669C111.923 104.688 112.785 106.062 113.173 107.598C113.345 108.213 113.281 108.871 112.993 109.442C112.706 110.013 112.215 110.457 111.617 110.686C110.593 111.104 109.78 111.164 109.196 109.882C108.461 108.229 107.255 106.829 105.729 105.855C104.532 105.107 104.828 104.379 105.444 103.532C105.724 103.161 106.083 102.857 106.495 102.642C106.907 102.427 107.362 102.306 107.827 102.289Z" fill="#E27B7A"/>
<path d="M105.486 127.239C103.818 127.59 102.361 128.514 100.693 128.933C96.2198 130.064 91.9718 129.502 87.8258 127.636C87.4739 127.474 87.0974 127.344 86.7349 127.2C87.9948 126.108 89.1984 125.728 90.9793 126.413C94.1933 127.689 97.7719 127.703 100.996 126.452C102.808 125.753 104.153 126.044 105.486 127.239Z" fill="#5279BC"/>
<path d="M96.2303 144.87C97.6381 144.87 99.0458 144.87 100.425 144.87C100.975 144.87 101.161 144.972 101.129 145.601C101.048 147.583 101.08 147.523 99.0388 147.822C96.7781 148.108 94.4885 148.08 92.2357 147.738C91.1974 147.601 90.4514 145.921 91.0426 145.078C91.2538 144.779 91.6022 144.888 91.8943 144.888C93.3373 144.888 94.7803 144.888 96.2233 144.888L96.2303 144.87Z" fill="#E17B7A"/>
<path d="M99.1335 120.928C102.213 120.644 105.046 119.772 107.299 117.517C106.025 121.213 103.132 123.019 99.6051 124.08C99.4777 124.111 99.3484 124.133 99.218 124.147C98.6197 124.238 97.9228 124.744 97.4582 124.034C96.9937 123.325 97.5216 121.87 98.2219 121.448C98.5316 121.269 98.8343 121.101 99.1335 120.928Z" fill="#E17B7A"/>
<path d="M84.9536 117.759C86.983 119.49 89.4871 120.571 92.1403 120.862C92.4078 120.893 92.6577 120.95 92.8724 120.739C94.0092 121.403 95.1037 122.067 94.7095 123.718C94.5969 124.186 94.5124 124.421 94.0056 124.368C91.0493 124.035 86.108 121.803 84.9536 117.759Z" fill="#E27B7A"/>
<path d="M108.851 136.43C109.432 135.791 110.005 135.141 110.611 134.515C111.899 133.149 111.902 133.152 112.825 134.867C113.856 136.778 113.367 138.598 111.551 139.624C109.896 139.182 109.47 137.723 108.851 136.43Z" fill="#F5B5B0"/>
<path d="M80.7057 139.653C78.3336 138.486 78.1858 136.209 80.3785 133.328L83.1412 136.22C82.9898 137.836 82.0079 138.859 80.7057 139.653Z" fill="#F6B5B0"/>
<path d="M81.1879 145.425C81.2126 145.731 81.2513 146.033 81.2548 146.335C81.2829 148.626 82.9723 149.947 85.2845 149.547C86.3404 149.361 87.2168 148.781 88.1283 148.275C88.1283 150.313 86.9211 151.789 85.0629 151.964C83.1272 152.161 81.5434 150.91 81.1915 148.907C80.9576 147.759 80.9564 146.575 81.1879 145.425Z" fill="#E17B7A"/>
<path d="M103.956 148.254C105.441 149.09 106.884 150.011 108.739 149.357C109.56 149.063 110.319 148.618 110.977 148.047C110.977 150.303 109.506 151.944 107.482 151.961C105.458 151.979 103.97 150.436 103.956 148.254Z" fill="#E17B7A"/>
<path d="M80.7056 139.653C81.6065 138.574 82.592 137.545 83.141 136.224C84.2285 137.337 83.3487 138.508 82.9756 139.446C82.6624 140.229 81.5397 140.25 80.7056 139.653Z" fill="#E07B7A"/>
<path d="M108.851 136.431C109.854 137.4 110.28 138.859 111.536 139.618C110.716 140.222 109.587 140.261 109.199 139.526C108.745 138.669 108.119 137.544 108.851 136.431Z" fill="#E07B7A"/>
<path d="M155.825 78.8559C155.054 77.5137 154.308 76.2382 153.587 74.9487C153.454 74.7193 153.388 74.457 153.398 74.1922C153.408 73.9273 153.493 73.6707 153.643 73.4519L155.783 70.0015C155.927 70.0998 156.012 70.128 156.047 70.1842C159.017 75.1138 159.169 73.234 155.825 78.8559Z" fill="#95B5DF"/>
<path d="M90.4302 111.343C91.303 111.47 91.838 111.951 91.7535 112.819C91.7516 112.996 91.7125 113.171 91.639 113.332C91.5655 113.493 91.4591 113.637 91.3266 113.755C91.194 113.873 91.0384 113.962 90.8695 114.016C90.7006 114.07 90.5222 114.088 90.3457 114.07C90.1581 114.077 89.9711 114.043 89.7983 113.97C89.6255 113.897 89.4712 113.786 89.3466 113.646C89.222 113.505 89.1302 113.339 89.0778 113.159C89.0253 112.979 89.0136 112.79 89.0435 112.605C89.1068 111.8 89.6454 111.396 90.4302 111.343Z" fill="#424252"/>
<path d="M100.394 112.745C100.415 111.926 100.851 111.41 101.647 111.368C101.832 111.34 102.021 111.353 102.2 111.407C102.379 111.462 102.544 111.555 102.682 111.681C102.82 111.807 102.929 111.962 102.999 112.135C103.07 112.309 103.101 112.495 103.09 112.682C103.106 112.868 103.082 113.055 103.018 113.231C102.954 113.406 102.853 113.566 102.72 113.698C102.588 113.83 102.428 113.931 102.253 113.995C102.077 114.059 101.889 114.083 101.703 114.066C100.914 114.063 100.446 113.567 100.394 112.745Z" fill="#414151"/>
<defs>
<clipPath id="clip0_643_315">
<rect width="280" height="199" fill="white"/>
</clipPath>
</defs>
</svg>
