<svg width="280" height="199" viewBox="0 0 280 199" fill="none" xmlns="http://www.w3.org/2000/svg">
<g clip-path="url(#clip0_642_255)">
<path d="M279.901 118.536C279.901 113.709 278.631 111.258 277.396 108.885C276.161 106.513 274.996 104.271 274.996 99.6585C274.91 96.5439 275.439 93.4322 276.576 90.3602C277.744 87.1944 278.288 83.9879 278.203 80.7786C278.203 75.9521 276.916 73.4978 275.675 71.1255C274.434 68.7533 273.252 66.5134 273.252 61.9014C273.252 57.2893 274.422 55.0441 275.593 52.6719C276.763 50.2997 278.063 47.848 278.063 43.0241C278.142 39.8218 277.646 36.6219 276.582 33.4558C275.558 30.3742 275.09 27.2601 275.183 24.1442C275.13 21.0224 275.478 17.9018 276.225 14.7983C276.989 11.6332 277.345 8.45075 277.29 5.26699C277.323 4.96304 277.216 4.65935 276.976 4.37503C276.736 4.09071 276.369 3.83191 275.897 3.6149C274.141 2.85504 271.467 2.88946 268.874 2.92388C268.341 2.92388 267.803 2.92388 267.265 2.92388C256.8 2.92388 251.714 2.39437 246.329 1.86485C240.945 1.33533 235.42 0.758162 224.499 0.758162C217.249 0.721918 210.005 0.96193 202.844 1.47566C195.877 1.97986 188.828 2.21369 181.774 2.17462C171.309 2.17462 166.223 1.6451 160.839 1.11558C155.454 0.586069 149.923 0.00360232 139.008 0.00360232C131.76 -0.0322626 124.518 0.199729 117.353 0.697267C110.383 1.18642 103.336 1.41312 96.2832 1.37505C85.6254 1.37505 80.2057 1.29827 74.9675 1.22678C69.7293 1.1553 64.2395 1.07852 53.5232 1.07852C42.8068 1.07852 37.4457 0.999091 32.2017 0.924959C26.9576 0.850826 21.4795 0.771401 10.7573 0.771401C6.27997 0.771401 3.26586 2.57705 3.26586 5.27229C3.26586 9.99292 3.26586 12.3519 3.26586 14.7109C3.26586 17.0699 3.26586 19.4315 3.26586 24.1522C3.33119 27.2714 2.91857 30.3889 2.03095 33.4822C1.12332 36.6485 0.7009 39.8394 0.766741 43.0321C0.766741 47.7739 1.02425 50.1805 1.27007 52.5157C1.51588 54.8508 1.77339 57.2125 1.77339 61.9119C1.77339 66.6114 1.55099 68.9995 1.33444 71.3108C1.11789 73.6222 0.889625 76.05 0.889625 80.7892C0.776102 84.0313 1.54869 87.2673 3.18978 90.4237C4.36032 92.8065 5.40212 95.0464 5.40212 99.6664C5.40212 104.286 4.12038 106.505 2.7684 108.875C1.41642 111.244 0 113.709 0 118.546C0 123.278 0.14052 125.695 0.275132 128.011C0.409745 130.328 0.550193 132.719 0.550193 137.426C0.459152 140.642 1.057 143.855 2.3353 147.018C3.57501 150.081 4.15127 153.19 4.05597 156.303C4.05597 161.053 4.41295 163.468 4.75241 165.803C5.09186 168.138 5.4372 170.492 5.4372 175.181C5.4372 179.803 4.37788 182.048 3.26001 184.429C2.14214 186.809 0.989147 189.242 0.989147 194.061C0.989147 196.443 6.03421 198.032 10.7398 198.032C21.4561 198.032 26.905 197.966 32.1783 197.905C37.4516 197.844 42.8419 197.78 53.5056 197.78C60.5716 197.746 67.6336 197.948 74.634 198.384C81.8093 198.829 89.047 199.036 96.289 199.004C103.537 199.04 110.78 198.807 117.944 198.307C124.914 197.821 131.962 197.595 139.014 197.632C146.259 197.666 153.498 197.447 160.669 196.978C167.659 196.519 174.717 196.306 181.78 196.343C192.256 196.343 197.348 196.83 202.738 197.346C208.129 197.862 213.636 198.405 224.546 198.405C235.309 198.405 240.787 198.22 246.078 198.042C251.369 197.865 256.695 197.688 267.306 197.688C268.511 197.688 270.232 197.622 271.478 197.063C272.877 196.422 272.86 195.527 272.842 194.492C272.842 194.354 272.842 194.227 272.842 194.066C272.746 190.952 273.334 187.842 274.598 184.781C275.896 181.617 276.504 178.403 276.412 175.186C276.48 171.991 276.045 168.798 275.113 165.631C274.199 162.54 273.777 159.424 273.849 156.306C273.849 151.583 273.808 149.181 273.773 146.86C273.738 144.538 273.691 142.142 273.691 137.426C273.691 132.843 275.177 130.614 276.752 128.255C278.326 125.896 279.901 123.394 279.901 118.536Z" fill="white"/>
<g clip-path="url(#clip1_642_255)">
<path d="M133.406 55.8904C132.372 54.3721 131.547 53.0458 130.613 51.8226C130.082 51.1115 130.202 50.795 130.907 50.3719C131.928 49.7649 132.908 49.0914 133.841 48.3557C134.507 47.8259 134.85 47.8935 135.314 48.6118C136.603 50.6066 137.969 52.5445 139.435 54.6921C140.6 52.644 141.729 50.7488 142.759 48.8038C143.195 47.9859 143.559 47.737 144.395 48.3131C145.374 48.9852 146.404 49.5796 147.475 50.091C148.25 50.4465 148.162 50.8235 147.801 51.4351C146.848 53.0458 145.946 54.6886 144.997 56.3669C146.54 56.8825 148.073 57.2807 149.521 57.8888C158.326 61.6046 163.99 67.9908 165.863 77.5273C166.076 78.6076 166.195 79.7046 166.217 80.8058C166.262 84.1055 166.269 87.4076 166.238 90.7121C166.238 92.7318 165.077 93.8519 163.094 93.9123H162.549C160.808 93.9123 160.372 94.5417 160.779 96.2876C160.935 96.9632 161.413 96.6752 161.746 96.7285C167.445 97.6957 171.361 101.251 172.674 106.685C174.519 114.298 168.6 122.092 160.793 122.234C159.537 122.255 158.949 122.568 158.492 123.831C156.039 130.658 151.766 136.134 145.938 140.418C145.507 140.738 145.068 141.051 144.6 141.393C148.618 145.18 151.267 149.678 152.414 155.036C152.647 156.1 152.794 157.181 152.853 158.268C153.093 163.449 152.941 168.633 152.948 173.814C152.948 175.948 151.805 176.993 149.681 177.014C130.223 177.014 110.767 177.014 91.3126 177.014C89.1884 177.014 88.0378 175.948 88.0449 173.836C88.0449 168.424 87.7298 162.998 88.2113 157.603C88.753 151.505 91.355 146.275 95.7839 142.05C96.7468 141.133 96.5521 140.831 95.6175 140.127C89.9744 135.86 85.7827 130.487 83.4993 123.735C83.078 122.49 82.4655 122.238 81.2618 122.245C74.7584 122.287 69.7985 118.401 68.3152 112.214C66.5238 104.747 72.3298 96.9632 79.998 96.7428C81.5238 96.7001 81.1627 95.8751 81.2654 95.0146C81.3928 93.8981 80.8051 93.8306 79.9732 93.9017C79.4726 93.9461 78.9691 93.9461 78.4686 93.9017C77.0525 93.7595 75.8842 92.7212 75.8771 91.3309C75.8594 87.2062 75.5231 83.0601 76.0329 78.9603C77.2932 69.0041 82.8974 62.2482 91.8436 58.1804C95.5963 56.47 99.5861 55.8869 103.7 55.9082C113.06 55.9509 122.424 55.9082 131.785 55.9082L133.406 55.8904Z" fill="#231F20"/>
<path d="M138.992 85.812C141.021 89.4033 143.754 91.9422 147.599 93.1938C149.762 93.905 151.978 93.969 154.208 93.905C154.916 93.8801 155.143 94.0863 155.139 94.8188C155.083 101.098 155.373 107.403 154.966 113.664C154.091 127.258 144.596 137.221 133.144 140.429C130.424 141.206 127.606 141.582 124.778 141.545C120.994 141.474 117.213 141.691 113.425 141.303C99.6673 139.881 90.0591 129.143 87.8287 118.721C87.0747 115.193 86.9012 111.666 86.8906 108.096C86.8906 103.786 86.8905 99.4769 86.795 95.1673C86.7737 94.1005 87.0817 93.8978 88.0836 93.9014C100.365 93.937 112.649 93.8836 124.93 93.9441C131.136 93.9547 135.771 91.3661 138.992 85.812Z" fill="#FDDCCF"/>
<path d="M104.748 88.1837C97.4902 88.1837 90.2327 88.1589 82.9716 88.2086C81.8636 88.2086 81.4529 87.9633 81.506 86.7863C81.6795 83.0954 81.1944 79.3761 82.3981 75.7634C84.9117 68.1932 92.4418 62.2835 100.386 61.6826C102.347 61.5332 104.302 61.4977 106.263 61.4977C117.131 61.4977 127.996 61.4336 138.861 61.519C146.161 61.5759 152.282 64.3209 156.775 70.2413C159.225 73.4097 160.552 77.3091 160.545 81.3211C160.545 83.2946 160.524 85.2645 160.545 87.2379C160.545 87.9491 160.305 88.1944 159.597 88.1837C156.764 88.1446 153.932 88.2335 151.1 88.1126C148.7 88.006 146.714 86.8432 145.23 84.9765C143.69 83.0314 142.43 80.9051 141.853 78.4445C141.552 77.1715 140.791 76.311 139.513 76.0337C138.114 75.7385 137.134 76.4141 136.419 77.5555C135.466 79.081 134.946 80.802 134.213 82.4269C132.524 86.1783 129.699 88.1766 125.543 88.1731L104.748 88.1837Z" fill="#C46F67"/>
<path d="M120.495 171.3C116.201 171.3 111.91 171.261 107.619 171.329C106.504 171.329 106.242 171.001 106.281 169.945C106.362 167.84 106.256 165.725 106.327 163.62C106.359 162.681 106.037 162.432 105.162 162.485C103.746 162.574 101.919 162.037 101.059 162.741C100.199 163.445 100.829 165.401 100.776 166.802C100.73 168.039 100.74 169.291 100.776 170.514C100.776 171.105 100.613 171.321 100.004 171.311C98.1347 171.282 96.2619 171.293 94.3891 171.311C93.9112 171.311 93.6138 171.24 93.6386 170.646C93.851 165.668 93.0934 160.643 94.2015 155.712C95.2211 151.174 97.6603 147.501 101.282 144.621C101.845 144.173 102.298 144.059 102.974 144.383C104.39 145.069 106.083 145.247 107.414 146.015C108.809 146.819 108.543 148.813 109.368 150.157C112.292 154.908 116.484 157.113 121.999 156.643C126.8 156.234 131.13 152.572 132.546 147.715C132.875 146.577 133.431 146.132 134.511 145.898C135.707 145.645 136.87 145.253 137.977 144.731C138.901 144.283 139.509 144.411 140.253 145.058C144.742 148.97 147.156 153.855 147.333 159.808C147.429 163.293 147.333 166.777 147.372 170.262C147.372 171.115 147.153 171.361 146.31 171.329C144.625 171.261 142.933 171.254 141.244 171.329C140.338 171.371 140.203 171.012 140.221 170.219C140.267 167.975 140.203 165.728 140.253 163.463C140.271 162.667 140.012 162.432 139.244 162.471C138.058 162.528 136.868 162.532 135.682 162.471C134.886 162.428 134.67 162.724 134.684 163.492C134.727 165.735 134.659 167.986 134.72 170.248C134.741 171.108 134.465 171.314 133.636 171.314C129.26 171.282 124.885 171.3 120.495 171.3Z" fill="#72CFE9"/>
<path d="M81.3009 108.935C81.354 110.93 81.1592 113.27 81.5593 115.588C81.6797 116.3 81.5841 116.676 80.6884 116.655C76.8968 116.534 73.7743 113.537 73.6398 109.81C73.5586 107.964 74.1893 106.158 75.4007 104.767C76.612 103.376 78.3107 102.508 80.1432 102.343C81.0318 102.254 81.361 102.439 81.3221 103.41C81.2442 105.117 81.3009 106.859 81.3009 108.935Z" fill="#FBCBBF"/>
<path d="M160.751 109.874C160.751 107.506 160.797 105.486 160.73 103.473C160.698 102.545 160.956 102.264 161.873 102.457C165.059 103.121 167.467 106.29 167.371 109.732C167.276 112.996 164.698 115.983 161.597 116.488C160.641 116.644 160.351 116.463 160.475 115.421C160.723 113.583 160.815 111.727 160.751 109.874Z" fill="#FBCBBF"/>
<path d="M126.899 147.131C125.391 149.812 123.277 151.135 120.473 151.117C117.669 151.1 115.563 149.78 114.179 147.131H126.899Z" fill="#F8C9BE"/>
<path d="M120.477 125.868C118.409 125.859 116.415 125.089 114.873 123.705C113.33 122.321 112.345 120.418 112.104 118.354C112.012 117.565 112.285 117.384 112.979 117.416C113.754 117.451 114.529 117.448 115.305 117.416C116.561 117.366 117.698 117.227 118.186 118.948C118.48 119.976 119.67 120.417 120.806 120.275C121.943 120.132 122.93 119.46 123.167 118.29C123.344 117.451 123.752 117.405 124.396 117.416C125.628 117.437 126.874 117.455 128.088 117.416C128.864 117.391 128.984 117.704 128.892 118.411C128.645 120.475 127.651 122.375 126.099 123.75C124.548 125.125 122.546 125.879 120.477 125.868Z" fill="#232020"/>
<path d="M135.86 113.739C135.427 113.752 134.997 113.676 134.595 113.518C134.192 113.36 133.826 113.122 133.517 112.818C133.208 112.515 132.963 112.152 132.797 111.751C132.63 111.35 132.546 110.92 132.549 110.486C132.541 110.051 132.618 109.62 132.776 109.216C132.935 108.812 133.171 108.443 133.472 108.131C133.773 107.819 134.132 107.57 134.529 107.398C134.926 107.226 135.353 107.134 135.785 107.129C136.658 107.134 137.494 107.478 138.119 108.09C138.744 108.701 139.109 109.532 139.138 110.407C139.138 111.284 138.794 112.126 138.18 112.75C137.566 113.373 136.733 113.729 135.86 113.739Z" fill="#242020"/>
<path d="M108.472 110.415C108.485 110.849 108.411 111.282 108.254 111.687C108.096 112.092 107.859 112.461 107.556 112.771C107.253 113.082 106.891 113.328 106.491 113.494C106.091 113.66 105.662 113.744 105.229 113.739C104.355 113.75 103.512 113.413 102.883 112.802C102.255 112.192 101.892 111.357 101.873 110.479C101.883 109.602 102.231 108.764 102.843 108.14C103.456 107.516 104.286 107.155 105.158 107.133C105.591 107.127 106.021 107.208 106.422 107.37C106.824 107.532 107.189 107.773 107.498 108.078C107.806 108.384 108.051 108.747 108.218 109.148C108.385 109.549 108.472 109.98 108.472 110.415Z" fill="#242020"/>
</g>
<path d="M189.145 55.4931C189.052 56.4586 189.554 57.3484 189.497 58.3091C188.359 58.7848 188.203 59.0214 188.238 60.3229C188.423 67.008 186.19 72.7347 181.455 77.4722C180.315 78.6152 179.442 79.9215 178.879 81.4407C178.226 83.2013 178.349 85.0376 178.292 86.8574C176.42 86.8574 174.546 86.8574 172.675 86.8574C172.666 81.2443 172.656 75.6288 172.647 70.0157C172.644 68.4965 172.649 68.5154 174.147 68.3947C175.864 68.2551 177.106 67.3724 177.719 65.7727C178.316 64.2133 178.039 62.7296 176.875 61.5038C175.685 60.2519 174.208 59.9159 172.576 60.4436C170.768 61.0305 169.803 62.5568 169.824 64.812C169.831 65.4296 169.68 65.6 169.053 65.5882C167.016 65.5456 164.976 65.5716 162.937 65.5716C161.399 65.5716 161.399 65.5716 161.28 64.0169C161.143 62.1995 159.79 60.6518 158.02 60.2874C156.274 59.9277 154.457 60.7773 153.596 62.3533C152.718 63.9601 153.021 65.9479 154.343 67.2399C155.294 68.1699 156.458 68.4728 157.753 68.4136C158.134 68.3947 158.474 68.319 158.472 68.9555C158.436 74.9236 158.436 80.8917 158.427 86.8621C158.103 86.8621 157.776 86.8645 157.452 86.8621C156.052 86.8597 155.621 86.4243 155.619 85.0021C155.616 83.8189 155.675 82.6333 155.604 81.4572C155.507 79.8765 155.089 78.3549 154.085 77.1031C152.891 75.6122 151.471 74.2918 150.368 72.7418C146.831 67.77 145.189 62.261 145.837 56.1084C146.192 52.7433 147.127 49.6031 148.826 46.683C148.977 46.4227 149.091 46.1553 149.039 45.8429C149.105 45.7483 149.159 45.6394 149.242 45.5613C155.607 39.34 163.142 37.1322 171.731 39.5128C179.319 41.6142 184.398 46.6262 187.053 54.0543C187.526 55.3795 187.962 55.6966 189.145 55.4931Z" fill="#F2EAD6"/>
<path d="M178.295 86.8579C178.352 85.0381 178.229 83.2018 178.882 81.4412C179.445 79.9219 180.316 78.6157 181.459 77.4727C186.193 72.7352 188.427 67.0085 188.242 60.3234C188.207 59.0219 188.363 58.7852 189.501 58.3096C190.755 58.5983 191.043 58.9509 191.079 60.2548C191.285 67.6947 188.808 74.0935 183.562 79.3777C181.925 81.0247 181.087 82.9296 181.161 85.2511C181.191 86.2544 181.17 87.2601 181.163 88.2659C181.156 89.1083 180.856 89.8466 180.2 90.3672C179.829 90.663 179.725 90.973 179.739 91.4155C179.767 92.2414 179.76 93.072 179.743 93.8979C179.717 95.313 178.894 96.4063 177.508 96.7044C176.966 96.8204 176.871 97.0263 176.9 97.5019C176.937 98.1503 176.916 98.8011 176.907 99.4518C176.885 101.272 175.724 102.443 173.916 102.469C172.65 102.488 172.65 102.488 172.65 103.775C172.65 104.781 172.669 105.787 172.643 106.79C172.586 109.111 170.779 110.934 168.458 110.974C166.508 111.007 164.556 111.012 162.607 110.971C160.335 110.927 158.528 109.102 158.466 106.833C158.438 105.739 158.402 104.641 158.476 103.553C158.532 102.708 158.35 102.289 157.411 102.455C156.978 102.531 156.528 102.469 156.105 102.299C154.96 101.832 154.304 100.999 154.21 99.7595C154.184 99.4069 154.184 99.0495 154.205 98.697C154.266 97.6557 154.366 96.7399 152.911 96.3992C151.884 96.1578 151.415 95.1237 151.368 94.0304C151.342 93.4412 151.344 92.8472 151.366 92.258C151.399 91.4014 151.411 90.6181 150.583 90.0004C150.067 89.6147 149.937 88.8977 149.941 88.2209C149.946 87.2743 149.911 86.3278 149.949 85.3836C150.046 82.9628 149.17 80.9821 147.457 79.2759C143.825 75.6624 141.542 71.3082 140.508 66.2844C137.91 53.6715 145.512 40.7959 157.827 36.9812C171.276 32.8164 185.341 39.9582 189.782 53.21C190.192 54.4334 190.102 54.7624 189.146 55.4912C187.965 55.6947 187.528 55.3776 187.054 54.0477C184.397 46.6196 179.318 41.6099 171.732 39.5062C163.144 37.1256 155.608 39.3311 149.243 45.5547C149.163 45.6352 149.109 45.7416 149.04 45.8363C148.829 46.0398 148.6 46.2244 148.413 46.4468C143.47 52.3605 141.786 59.0881 143.499 66.6086C144.429 70.6977 146.428 74.2402 149.404 77.2006C151.198 78.9872 152.442 81.0436 152.695 83.5875C152.826 84.9032 152.795 86.2402 152.766 87.5678C152.755 88.1594 152.932 88.3085 153.502 88.2872C154.711 88.2446 155.923 88.273 157.132 88.273C158.504 88.273 158.504 88.273 158.428 86.8531C158.438 80.8851 158.438 74.917 158.473 68.9466C158.478 68.31 158.135 68.3881 157.754 68.4047C156.462 68.4662 155.296 68.1609 154.345 67.2309C153.022 65.9389 152.719 63.9535 153.597 62.3443C154.458 60.7683 156.275 59.9188 158.021 60.2784C159.791 60.6429 161.144 62.1905 161.282 64.0079C161.4 65.5626 161.4 65.5626 162.938 65.5626C164.977 65.5626 167.017 65.5342 169.054 65.5792C169.681 65.5934 169.83 65.423 169.825 64.803C169.804 62.5478 170.769 61.0215 172.577 60.4346C174.209 59.9045 175.686 60.243 176.876 61.4948C178.042 62.7206 178.319 64.2043 177.721 65.7638C177.108 67.3634 175.866 68.2461 174.148 68.3857C172.648 68.5088 172.646 68.4875 172.648 70.0067C172.657 75.6198 172.667 81.2353 172.676 86.8484C172.667 87.0259 172.676 87.2057 172.643 87.3785C172.506 88.1144 172.79 88.3345 173.535 88.2872C174.683 88.2162 175.84 88.2682 176.992 88.2682C178.369 88.2777 178.369 88.2777 178.295 86.8579ZM169.78 86.8579C169.79 80.8874 169.794 74.917 169.818 68.9466C169.821 68.5254 169.707 68.3952 169.276 68.3999C166.794 68.4189 164.31 68.4189 161.828 68.3999C161.4 68.3976 161.286 68.5254 161.286 68.9466C161.308 74.917 161.315 80.8874 161.324 86.8579C161.315 87.0046 161.319 87.1537 161.293 87.298C161.149 88.0979 161.464 88.3227 162.273 88.299C164.341 88.2351 166.411 88.2777 168.479 88.2777C169.854 88.2777 169.854 88.2777 169.78 86.8579ZM165.564 91.1103C162.491 91.1103 159.417 91.1103 156.344 91.1103C154.108 91.1103 154.127 91.1103 154.195 93.3181C154.212 93.8222 154.352 93.9594 154.846 93.9547C156.531 93.9334 158.215 93.9381 159.9 93.9713C160.709 93.9878 161.27 94.5534 161.301 95.287C161.334 96.0584 160.773 96.6997 159.969 96.7825C159.647 96.8157 159.318 96.7944 158.994 96.7944C156.978 96.7944 157.006 96.7944 157.044 98.846C157.056 99.4684 157.231 99.6269 157.837 99.6246C162.536 99.608 167.234 99.6269 171.933 99.6317C174.105 99.634 174.077 99.6317 174.086 97.4972C174.089 96.889 173.888 96.7778 173.336 96.7849C170.854 96.8109 168.373 96.8015 165.891 96.7944C164.786 96.792 164.147 96.2596 164.137 95.3603C164.128 94.4706 164.757 93.9665 165.905 93.9642C168.888 93.9594 171.874 93.9618 174.858 93.9618C176.926 93.9618 176.897 93.9618 176.933 91.9267C176.945 91.2807 176.8 91.0866 176.119 91.0937C172.598 91.1316 169.082 91.1103 165.564 91.1103ZM165.548 102.471C164.369 102.471 163.189 102.504 162.01 102.457C161.412 102.434 161.26 102.646 161.284 103.21C161.329 104.298 161.296 105.392 161.324 106.482C161.353 107.573 161.875 108.099 162.976 108.118C164.715 108.146 166.454 108.153 168.193 108.141C169.231 108.134 169.783 107.59 169.804 106.565C169.825 105.415 169.787 104.265 169.821 103.115C169.835 102.618 169.686 102.448 169.177 102.462C167.968 102.495 166.757 102.471 165.548 102.471ZM157.572 65.591C157.841 65.4443 158.345 65.8348 158.431 65.3236C158.511 64.848 158.561 64.3226 158.355 63.847C158.088 63.2246 157.586 62.9643 156.931 63.0897C156.351 63.201 156.013 63.5867 155.956 64.183C155.892 64.8669 156.235 65.3047 156.857 65.52C157.073 65.591 157.321 65.5674 157.572 65.591ZM173.412 65.5745C174.605 65.5697 175.149 65.158 175.156 64.3226C175.161 63.5867 174.614 63.0519 173.873 63.0661C173.029 63.0826 172.698 63.6482 172.627 64.8361C172.579 65.5958 172.929 65.6549 173.412 65.5745Z" fill="#020202"/>
<path d="M181.16 35.7658C180.59 35.7279 180.154 35.4842 179.894 34.9541C179.629 34.417 179.672 33.8774 180.069 33.4704C181.548 31.9464 183.039 30.4296 184.581 28.9719C185.142 28.4442 185.861 28.5294 186.417 29.0784C186.976 29.6297 187.07 30.3538 186.545 30.9123C185.069 32.4765 183.519 33.9768 181.983 35.4842C181.775 35.6877 181.472 35.78 181.16 35.7658Z" fill="#020202"/>
<path d="M151.353 34.3669C151.294 34.9017 151.062 35.3205 150.581 35.5808C150.058 35.8624 149.505 35.853 149.096 35.4578C147.569 33.9859 146.06 32.495 144.598 30.9592C144.061 30.3937 144.167 29.698 144.692 29.1229C145.203 28.5621 146.015 28.4816 146.597 29.0377C148.088 30.4623 149.528 31.9366 150.981 33.4014C151.237 33.6593 151.346 34.0001 151.353 34.3669Z" fill="#020202"/>
<path d="M166.971 27.2503C166.971 28.1353 166.983 29.018 166.969 29.903C166.952 30.8733 166.404 31.4909 165.573 31.5051C164.74 31.5193 164.146 30.9017 164.137 29.948C164.12 28.1495 164.12 26.3511 164.137 24.555C164.146 23.5989 164.738 22.986 165.573 23.0002C166.408 23.0144 166.952 23.625 166.969 24.5999C166.983 25.4826 166.971 26.3676 166.971 27.2503Z" fill="#020202"/>
<path d="M158.425 86.8567C158.498 88.2765 158.498 88.2765 157.129 88.2765C155.92 88.2765 154.708 88.2458 153.499 88.2907C152.931 88.312 152.751 88.1629 152.763 87.5713C152.792 86.2461 152.822 84.9091 152.692 83.591C152.439 81.0495 151.197 78.9907 149.401 77.2041C146.427 74.2437 144.428 70.7012 143.496 66.6121C141.785 59.0917 143.467 52.364 148.41 46.4504C148.597 46.2279 148.826 46.041 149.037 45.8398C149.089 46.1522 148.975 46.4196 148.824 46.6799C147.125 49.5977 146.191 52.7379 145.836 56.1053C145.187 62.2603 146.829 67.7669 150.367 72.7387C151.469 74.2887 152.891 75.6092 154.083 77.1C155.087 78.3518 155.505 79.8734 155.602 81.4542C155.673 82.6326 155.614 83.8182 155.617 84.999C155.619 86.4189 156.05 86.8543 157.45 86.859C157.777 86.859 158.101 86.8567 158.425 86.8567Z" fill="#EEE4CB"/>
<path d="M178.296 86.8564C178.369 88.2763 178.369 88.2763 176.995 88.2763C175.842 88.2763 174.685 88.2242 173.538 88.2952C172.793 88.3402 172.511 88.1225 172.646 87.3865C172.677 87.2138 172.67 87.0339 172.679 86.8564C174.55 86.8564 176.422 86.8564 178.296 86.8564Z" fill="#EEE4CB"/>
<path d="M161.324 86.8565C161.314 80.8861 161.309 74.9156 161.286 68.9452C161.283 68.524 161.397 68.3938 161.828 68.3986C164.309 68.4175 166.794 68.4175 169.276 68.3986C169.704 68.3962 169.817 68.524 169.817 68.9452C169.796 74.9156 169.789 80.8861 169.78 86.8565C166.962 86.8565 164.141 86.8565 161.324 86.8565Z" fill="#F2EAD6"/>
<path d="M165.566 91.1114C169.082 91.1114 172.6 91.1327 176.116 91.0925C176.797 91.0854 176.939 91.2794 176.93 91.9254C176.897 93.9606 176.925 93.9605 174.855 93.9605C171.871 93.9605 168.885 93.9582 165.902 93.9629C164.754 93.9653 164.125 94.4693 164.134 95.3591C164.144 96.2583 164.783 96.7908 165.888 96.7931C168.37 96.8002 170.851 96.8097 173.333 96.7837C173.885 96.7766 174.086 96.8878 174.083 97.496C174.076 99.6328 174.102 99.6352 171.93 99.6305C167.231 99.6257 162.533 99.6068 157.834 99.6234C157.226 99.6257 157.051 99.4672 157.041 98.8448C157.006 96.7931 156.975 96.7931 158.991 96.7931C159.315 96.7931 159.644 96.8144 159.966 96.7813C160.768 96.7009 161.328 96.0572 161.298 95.2857C161.267 94.5522 160.708 93.9866 159.897 93.97C158.212 93.9369 156.528 93.9322 154.843 93.9535C154.349 93.9606 154.209 93.8209 154.192 93.3169C154.124 91.109 154.105 91.109 156.341 91.109C159.419 91.1114 162.492 91.1114 165.566 91.1114Z" fill="#B7BABC"/>
<path d="M165.548 102.47C166.757 102.47 167.967 102.491 169.176 102.461C169.684 102.446 169.833 102.619 169.819 103.114C169.788 104.264 169.826 105.414 169.803 106.564C169.784 107.589 169.232 108.135 168.191 108.14C166.452 108.152 164.713 108.142 162.974 108.116C161.874 108.1 161.351 107.572 161.323 106.481C161.294 105.39 161.33 104.299 161.283 103.208C161.259 102.645 161.41 102.432 162.009 102.456C163.19 102.503 164.37 102.47 165.548 102.47Z" fill="#7B7C7D"/>
<path d="M161.323 86.8564C164.141 86.8564 166.959 86.8564 169.78 86.8564C169.853 88.2763 169.853 88.2763 168.478 88.2763C166.408 88.2763 164.338 88.2337 162.272 88.2976C161.463 88.3212 161.148 88.0964 161.293 87.2966C161.319 87.1546 161.314 87.0032 161.323 86.8564Z" fill="#EEE4CB"/>
<path d="M157.574 65.5923C157.323 65.571 157.075 65.5947 156.859 65.5189C156.237 65.3036 155.894 64.8658 155.958 64.1819C156.015 63.5856 156.353 63.1999 156.933 63.0886C157.588 62.9632 158.09 63.2259 158.357 63.8459C158.563 64.3215 158.513 64.8469 158.433 65.3225C158.347 65.836 157.843 65.4456 157.574 65.5923Z" fill="#EEE4CB"/>
<path d="M173.411 65.5746C172.931 65.655 172.579 65.5959 172.626 64.8363C172.697 63.6483 173.03 63.0828 173.873 63.0662C174.613 63.052 175.16 63.5868 175.155 64.3228C175.146 65.1581 174.604 65.5675 173.411 65.5746Z" fill="#EEE4CB"/>
</g>
<defs>
<clipPath id="clip0_642_255">
<rect width="280" height="199" fill="white"/>
</clipPath>
<clipPath id="clip1_642_255">
<rect width="105" height="129" fill="white" transform="translate(68 48)"/>
</clipPath>
</defs>
</svg>
