<svg width="97" height="97" viewBox="0 0 97 97" fill="none" xmlns="http://www.w3.org/2000/svg">
<path d="M54.7108 53.3481L54.7097 53.3477L45.4737 50.2691L45.4728 50.2688C44.5765 49.9706 44.0861 48.993 44.3842 48.0944C44.6216 47.3858 45.2775 46.9158 46.0174 46.9158H50.0392C51.3461 46.9158 52.4988 47.7454 52.9139 48.9903C53.7976 51.6446 56.6611 53.029 59.2672 52.1768L59.2743 52.1744L59.2813 52.1721C61.9147 51.2891 63.3369 48.4458 62.4595 45.8082L62.4592 45.8075C61.0542 41.5891 57.6585 38.4809 53.531 37.3436V36.3745C53.531 33.5963 51.278 31.3433 48.4998 31.3433C45.7215 31.3433 43.4685 33.5963 43.4685 36.3745V37.1585C39.4924 38.0334 36.173 40.9127 34.839 44.9099L34.8386 44.911C32.7844 51.0779 36.1252 57.7588 42.2895 59.8176L42.2906 59.818L51.5267 62.8966L51.5276 62.8969C52.4238 63.1951 52.9142 64.1727 52.6161 65.0713C52.3787 65.7799 51.7228 66.2499 50.983 66.2499H46.9611C45.6548 66.2499 44.5025 65.421 44.0869 64.177C43.2023 61.5147 40.3467 60.1597 37.75 60.9835L37.7344 60.9884L37.719 60.9936C35.0856 61.8766 33.6634 64.7199 34.5409 67.3575L34.5411 67.3582C35.9461 71.5766 39.3418 74.6848 43.4693 75.8221V76.7912C43.4693 79.5694 45.7223 81.8224 48.5006 81.8224C51.2788 81.8224 53.5318 79.5694 53.5318 76.7912V76.0072C57.5079 75.1323 60.8273 72.253 62.1614 68.2558L62.1617 68.2547C64.2159 62.0878 60.8751 55.4069 54.7108 53.3481ZM28.2918 25.2812C27.7227 25.2812 27.2606 24.819 27.2606 24.2499V8.08325C27.2606 7.51417 27.7227 7.052 28.2918 7.052C28.8609 7.052 29.3231 7.51417 29.3231 8.08325V24.2499C29.3231 24.819 28.8609 25.2812 28.2918 25.2812ZM89.9481 28.2916V76.7916C89.9481 84.0429 84.0449 89.9478 76.7918 89.9478H20.2085C12.9555 89.9478 7.05225 84.0429 7.05225 76.7916V28.2916C7.05225 22.0947 11.3868 16.9145 17.1981 15.5525V24.2499C17.1981 30.3667 22.1725 35.3437 28.2918 35.3437C34.4112 35.3437 39.3856 30.3667 39.3856 24.2499V15.1353H57.6147V24.2499C57.6147 30.3667 62.5891 35.3437 68.7085 35.3437C74.8279 35.3437 79.8023 30.3667 79.8023 24.2499V15.5525C85.6135 16.9144 89.9481 22.0947 89.9481 28.2916ZM69.7398 8.08325V24.2499C69.7398 24.819 69.2776 25.2812 68.7085 25.2812C68.1394 25.2812 67.6772 24.819 67.6772 24.2499V8.08325C67.6772 7.51417 68.1394 7.052 68.7085 7.052C69.2776 7.052 69.7398 7.51417 69.7398 8.08325Z" stroke="#14A594" stroke-width="4"/>
</svg>
