<svg width="280" height="199" viewBox="0 0 280 199" fill="none" xmlns="http://www.w3.org/2000/svg">
<g clip-path="url(#clip0_643_315)">
<path d="M280 118.532C280 113.705 278.73 111.254 277.495 108.881C276.26 106.509 275.096 104.267 275.096 99.6546C275.009 96.54 275.538 93.4283 276.676 90.3563C277.843 87.1904 278.388 83.984 278.303 80.7747C278.303 75.9481 277.015 73.4938 275.775 71.1216C274.534 68.7494 273.351 66.5095 273.351 61.8974C273.351 57.2854 274.522 55.0402 275.693 52.668C276.863 50.2958 278.162 47.8441 278.162 43.0202C278.241 39.8179 277.746 36.618 276.682 33.4519C275.658 30.3703 275.19 27.2562 275.283 24.1403C275.23 21.0185 275.577 17.8979 276.325 14.7944C277.089 11.6293 277.445 8.44684 277.39 5.26308C277.422 4.95913 277.315 4.65545 277.075 4.37112C276.836 4.0868 276.468 3.828 275.997 3.61099C274.241 2.85114 271.566 2.88556 268.974 2.91998C268.441 2.91998 267.903 2.91998 267.364 2.91998C256.899 2.91998 251.813 2.39046 246.429 1.86094C241.044 1.33143 235.519 0.754256 224.598 0.754256C217.348 0.718012 210.104 0.958024 202.943 1.47175C195.977 1.97595 188.928 2.20979 181.873 2.17071C171.409 2.17071 166.323 1.64119 160.938 1.11168C155.554 0.582163 150.023 -0.000303932 139.108 -0.000303932C131.86 -0.0361689 124.617 0.195823 117.453 0.69336C110.483 1.18251 103.435 1.40922 96.3828 1.37114C85.725 1.37114 80.3053 1.29436 75.0671 1.22288C69.8289 1.15139 64.3391 1.07461 53.6228 1.07461C42.9065 1.07461 37.5453 0.995185 32.3013 0.921052C27.0573 0.84692 21.5791 0.767494 10.8569 0.767494C6.37958 0.767494 3.36547 2.57314 3.36547 5.26838C3.36547 9.98901 3.36547 12.348 3.36547 14.707C3.36547 17.066 3.36547 19.4276 3.36547 24.1483C3.4308 27.2675 3.01818 30.3849 2.13056 33.4783C1.22293 36.6446 0.800509 39.8355 0.86635 43.0282C0.86635 47.77 1.12386 50.1766 1.36968 52.5118C1.61549 54.8469 1.873 57.2086 1.873 61.908C1.873 66.6075 1.6506 68.9956 1.43405 71.3069C1.2175 73.6183 0.989234 76.0461 0.989234 80.7853C0.875711 84.0274 1.6483 87.2634 3.28939 90.4198C4.45993 92.8026 5.50173 95.0425 5.50173 99.6625C5.50173 104.283 4.21998 106.501 2.86801 108.871C1.51603 111.24 0.0996094 113.705 0.0996094 118.542C0.0996094 123.274 0.240129 125.691 0.374742 128.008C0.509354 130.324 0.649802 132.715 0.649802 137.422C0.558761 140.638 1.15661 143.851 2.43491 147.014C3.67462 150.077 4.25088 153.187 4.15558 156.3C4.15558 161.049 4.51256 163.464 4.85202 165.799C5.19147 168.134 5.53681 170.488 5.53681 175.177C5.53681 179.799 4.47748 182.045 3.35961 184.425C2.24175 186.805 1.08876 189.238 1.08876 194.057C1.08876 196.439 6.13382 198.028 10.8394 198.028C21.5557 198.028 27.0046 197.962 32.2779 197.901C37.5512 197.84 42.9416 197.776 53.6052 197.776C60.6712 197.743 67.7332 197.944 74.7336 198.38C81.9089 198.825 89.1466 199.032 96.3887 199C103.637 199.036 110.88 198.803 118.044 198.303C125.014 197.817 132.061 197.591 139.114 197.628C146.358 197.662 153.598 197.443 160.769 196.974C167.758 196.515 174.817 196.302 181.879 196.339C192.356 196.339 197.448 196.826 202.838 197.342C208.228 197.859 213.736 198.401 224.645 198.401C235.408 198.401 240.886 198.216 246.177 198.039C251.468 197.861 256.794 197.684 267.405 197.684C268.611 197.684 270.331 197.618 271.578 197.059C272.977 196.418 272.959 195.523 272.942 194.488C272.942 194.351 272.942 194.223 272.942 194.062C272.846 190.948 273.434 187.838 274.698 184.777C275.995 181.613 276.603 178.399 276.512 175.182C276.579 171.987 276.145 168.794 275.213 165.627C274.299 162.536 273.877 159.42 273.948 156.302C273.948 151.579 273.908 149.178 273.872 146.856C273.837 144.534 273.79 142.138 273.79 137.422C273.79 132.839 275.277 130.61 276.851 128.251C278.426 125.892 280 123.39 280 118.532Z" fill="white"/>
</g>
<path d="M180.591 176.971C153.433 176.971 126.275 176.971 99.1178 176.971C102.803 175.62 104.359 172.953 103.986 169.087C103.934 168.541 103.982 167.984 103.97 167.435C103.862 162.301 101.696 158.195 97.7062 155.027C96.9723 154.441 96.1502 153.964 95.3602 153.431C100.233 148.346 99.1138 141.809 95.6168 138.26C91.8311 134.418 85.6473 134.041 81.4204 137.47C79.2709 139.214 77.9836 141.488 77.5986 144.227C77.0893 147.82 78.3606 150.852 80.8229 153.463C74.8556 156.924 72.1567 162.021 72.0684 168.762C72.0163 172.62 73.1352 175.479 76.8688 176.967C72.5096 176.967 68.1504 176.951 63.7912 176.987C63.1456 176.991 62.905 176.863 63.0333 176.213C63.0734 176.021 63.0373 175.812 63.0373 175.612C63.0373 125.202 63.0413 74.793 63.0092 24.3837C63.0092 23.2568 63.2619 22.9922 64.3888 23.0002C71.6554 23.0603 78.918 23.0323 86.1846 23.0323C86.0643 23.4333 85.6994 23.2849 85.4347 23.3571C78.5892 25.1657 75.3569 33.0098 78.9942 39.0293C79.4995 39.8634 80.1171 40.6294 80.6826 41.4274C79.8645 41.9929 79.0062 42.5062 78.2322 43.1238C72.8585 47.4108 71.495 53.1976 72.281 59.6702C72.658 62.7742 75.1564 64.7713 78.3205 64.8635C79.672 64.9036 81.0234 64.8515 82.3749 64.8836C83.9188 64.9237 84.8412 64.2459 85.0818 62.698C87.0549 62.694 89.0239 62.6899 90.997 62.6819C91.3178 64.2499 92.2723 64.9558 93.8804 64.8876C95.28 64.8274 96.6876 64.9116 98.0872 64.8475C101.315 64.7031 103.822 62.1806 103.954 58.9604C104.002 57.7613 103.994 56.5542 103.962 55.3551C103.806 49.6124 101.239 45.1891 96.4349 42.1252C95.3722 41.4475 95.4845 41.1868 96.1783 40.3406C100.979 34.4856 98.388 25.7793 91.2537 23.5095C90.7724 23.3571 90.1308 23.6218 89.7899 23.0323C123.059 23.0323 156.329 23.0323 189.602 23.0323C189.526 23.4333 189.157 23.3731 188.9 23.4654C181.293 26.2124 178.955 34.4255 184.068 40.6414C184.761 41.4836 184.328 41.6239 183.731 41.9929C180.226 44.1424 177.86 47.1822 176.653 51.1283C175.786 53.9636 175.875 56.879 176.131 59.7544C176.372 62.4493 178.91 64.663 181.633 64.8354C183.029 64.9237 184.437 64.8034 185.832 64.9036C187.541 65.0239 188.619 64.3943 188.996 62.6859C190.965 62.6899 192.938 62.694 194.907 62.702C195.148 64.2459 196.062 64.9357 197.61 64.8956C199.01 64.8595 200.418 64.9157 201.817 64.8675C204.865 64.7593 207.187 62.714 207.74 59.6903C208.013 58.1984 207.925 56.6906 207.849 55.1947C207.556 49.4961 205.005 45.0607 200.161 42.037C199.247 41.4675 199.287 41.243 199.936 40.481C204.869 34.6741 202.339 25.8635 195.14 23.5255C194.599 23.3491 193.933 23.5857 193.512 23.0363C200.871 23.0363 208.23 23.0603 215.593 23.0082C216.687 23.0002 216.996 23.2007 216.996 24.3717C216.956 54.4127 216.964 84.4538 216.964 114.495C216.964 134.923 216.952 155.352 216.996 175.78C217 176.831 216.76 177.015 215.753 176.999C211.45 176.931 207.143 176.971 202.836 176.971C205.639 176.013 207.592 174.264 207.837 171.16C208.43 163.697 206.237 157.533 199.419 153.607C199.343 153.563 199.311 153.455 199.259 153.374C204.123 148.277 203.028 141.793 199.355 138.155C195.377 134.217 189.016 134.125 184.806 137.871C181.301 140.987 179.323 147.736 184.645 153.471C183.29 154.329 181.954 155.191 180.803 156.306C176.28 160.697 175.506 166.215 176.175 172.094C176.368 173.787 177.511 175.07 178.947 176.037C179.48 176.394 180.182 176.426 180.591 176.971ZM119.683 32.4805C119.61 32.4083 119.538 32.3321 119.466 32.2599C119.795 31.4258 120.128 30.5956 120.453 29.7615C121.03 28.2817 120.605 27.0064 119.362 26.4851C118.163 25.9838 116.948 26.5092 116.334 27.9047C115.167 30.5515 114.028 33.2144 112.929 35.8892C112.324 37.361 112.745 38.3796 114.237 39.0493C116.875 40.2324 119.53 41.3873 122.201 42.4982C123.597 43.0797 124.804 42.5904 125.337 41.3633C125.866 40.1361 125.365 39.0253 123.945 38.3475C123.003 37.8984 122.041 37.4893 120.938 36.992C121.331 36.7996 121.499 36.6913 121.688 36.6271C131.693 33.3066 141.855 32.7331 152.166 34.9268C156.184 35.7809 160.042 37.1284 163.796 38.7846C165.255 39.4303 166.438 39.1095 167.056 38.0066C167.798 36.6873 167.208 35.3839 165.46 34.5899C157.235 30.8523 148.589 29.0597 139.566 29.1038C132.748 29.1359 126.143 30.3871 119.683 32.4805ZM72.265 120.55C71.3827 120.205 70.5044 119.853 69.6222 119.52C68.2306 118.994 66.9954 119.447 66.4902 120.651C65.9849 121.85 66.5222 123.073 67.9098 123.682C70.5125 124.829 73.1272 125.948 75.7499 127.043C77.33 127.701 78.3606 127.32 79.0544 125.784C80.2414 123.145 81.3964 120.49 82.5032 117.819C83.0847 116.42 82.5955 115.217 81.3643 114.683C80.1452 114.154 79.0303 114.659 78.3566 116.083C77.9074 117.025 77.4984 117.988 77.0011 119.091C76.8086 118.698 76.7003 118.525 76.6362 118.341C72.8264 106.791 72.6339 95.1733 76.0547 83.5033C76.8126 80.9167 77.8232 78.4143 78.926 75.952C79.4073 74.8772 79.2188 73.8746 78.2563 73.1327C77.4102 72.4831 76.4998 72.4911 75.6095 73.0966C75.0401 73.4856 74.7954 74.1032 74.5308 74.6887C71.0378 82.4526 69.2492 90.5975 69.1049 99.1033C68.9846 106.37 70.2277 113.432 72.4815 120.33C72.4133 120.402 72.3412 120.474 72.265 120.55ZM207.748 79.465C208.534 79.7778 209.324 80.0825 210.106 80.3994C211.678 81.033 212.99 80.636 213.523 79.3567C214.045 78.1135 213.483 76.9385 211.959 76.2688C209.405 75.1419 206.838 74.0431 204.259 72.9683C202.683 72.3106 201.649 72.6956 200.959 74.2315C199.772 76.8703 198.621 79.5251 197.51 82.196C196.929 83.5915 197.418 84.7946 198.653 85.332C199.876 85.8654 200.987 85.3601 201.665 83.9364C202.114 82.994 202.523 82.0315 203.056 80.8325C205.182 86.7276 206.204 92.5144 206.361 98.4456C206.593 107.228 204.873 115.63 201.28 123.654C200.518 125.359 200.907 126.602 202.27 127.167C203.55 127.697 204.652 127.103 205.402 125.451C209.164 117.178 210.961 108.483 210.9 99.4041C210.852 92.6508 209.609 86.09 207.528 79.6815C207.6 79.6093 207.672 79.5372 207.748 79.465ZM156.99 127.376C158.458 127.4 159.625 126.963 160.555 126.064C162.428 124.256 164.309 122.447 166.07 120.53C167.738 118.71 167.83 116.396 166.475 114.302C165.905 113.42 165.247 112.598 164.65 111.736C163.864 110.605 164.369 109.374 165.737 109.121C166.623 108.957 167.521 108.868 168.407 108.716C171.183 108.239 172.899 106.402 172.999 103.615C173.088 101.213 173.084 98.8026 172.999 96.4044C172.899 93.6133 171.191 91.7765 168.412 91.2993C167.573 91.1549 166.727 91.0627 165.889 90.9264C164.325 90.6737 163.816 89.4506 164.73 88.1512C165.336 87.293 165.997 86.4709 166.551 85.5847C167.798 83.5956 167.726 81.3257 166.162 79.6053C164.345 77.6082 162.428 75.6873 160.431 73.8666C158.667 72.2585 156.369 72.1983 154.327 73.5137C153.489 74.0551 152.703 74.6807 151.889 75.2582C150.51 76.2367 149.339 75.7194 149.07 74.015C148.946 73.225 148.845 72.4309 148.717 71.6409C148.256 68.8136 146.367 67.0852 143.5 67.005C141.198 66.9408 138.892 66.9489 136.586 67.001C133.638 67.0692 131.733 68.7936 131.28 71.7091C131.164 72.451 131.06 73.1929 130.947 73.9348C130.683 75.7394 129.52 76.2608 128.056 75.2221C127.242 74.6446 126.46 74.015 125.614 73.4816C123.52 72.1622 121.206 72.3146 119.394 74.003C117.561 75.7073 115.789 77.4839 114.076 79.3086C112.272 81.2295 112.123 83.5715 113.559 85.7731C114.132 86.6514 114.794 87.4735 115.388 88.3357C116.117 89.3944 115.62 90.6216 114.345 90.8742C113.463 91.0507 112.564 91.155 111.674 91.2913C108.911 91.7084 107.122 93.5531 107.01 96.3202C106.914 98.7705 106.914 101.233 107.01 103.683C107.118 106.454 108.903 108.307 111.658 108.728C112.5 108.856 113.342 108.957 114.18 109.105C115.672 109.366 116.174 110.565 115.311 111.796C114.738 112.618 114.112 113.4 113.563 114.234C112.119 116.436 112.26 118.774 114.06 120.699C115.769 122.527 117.545 124.3 119.378 126.004C121.235 127.733 123.573 127.861 125.726 126.465C126.564 125.924 127.346 125.294 128.164 124.721C129.46 123.811 130.647 124.328 130.911 125.92C131.052 126.758 131.148 127.604 131.288 128.443C131.737 131.125 133.558 132.87 136.269 132.99C138.719 133.098 141.178 133.09 143.632 132.998C146.419 132.894 148.264 131.145 148.709 128.382C148.845 127.544 149.006 126.702 149.066 125.856C149.126 124.954 149.679 124.633 150.421 124.316C151.179 123.995 151.532 124.545 151.993 124.845C153.614 125.904 154.985 127.432 156.99 127.376ZM159.015 162.967C158.839 163.099 158.767 163.18 158.679 163.22C158.498 163.304 158.31 163.376 158.121 163.436C146.612 167.226 135.046 167.346 123.436 163.934C120.846 163.172 118.355 162.145 115.885 161.066C114.722 160.557 113.687 160.862 113.009 161.932C112.364 162.959 112.56 163.97 113.459 164.768C113.82 165.089 114.301 165.297 114.754 165.498C129.287 171.866 144.121 172.58 159.24 167.848C159.677 167.711 160.098 167.366 160.656 167.651C160.271 168.569 159.886 169.436 159.541 170.318C158.983 171.742 159.384 172.937 160.575 173.49C161.766 174.043 163.038 173.55 163.643 172.183C164.834 169.492 165.989 166.781 167.1 164.058C167.674 162.658 167.257 161.632 165.845 160.998C163.162 159.787 160.459 158.616 157.74 157.497C156.357 156.928 155.154 157.461 154.648 158.72C154.175 159.903 154.66 160.998 155.992 161.64C156.974 162.101 157.973 162.51 159.015 162.967Z" fill="#FDFDFD"/>
<path d="M180.591 176.971C180.182 176.425 179.476 176.389 178.951 176.036C177.515 175.07 176.372 173.787 176.18 172.094C175.51 166.215 176.28 160.697 180.808 156.306C181.959 155.191 183.294 154.329 184.649 153.471C179.328 147.736 181.305 140.987 184.81 137.871C189.021 134.129 195.381 134.217 199.359 138.155C203.033 141.793 204.127 148.277 199.263 153.374C199.315 153.455 199.351 153.563 199.423 153.607C206.241 157.533 208.435 163.697 207.841 171.16C207.596 174.26 205.643 176.012 202.84 176.971C195.425 176.971 188.006 176.971 180.591 176.971ZM193.516 156.53C190.128 155.797 187.204 156.879 184.617 158.969C180.719 162.121 180.198 166.468 180.607 171.06C180.703 172.122 181.574 172.467 182.588 172.463C187.83 172.439 193.075 172.427 198.317 172.415C199.315 172.431 200.318 172.455 201.316 172.463C202.676 172.471 203.345 171.737 203.365 170.422C203.39 168.822 203.418 167.226 203.145 165.634C202.335 160.837 197.956 156.683 193.516 156.53ZM191.876 151.738C195.273 151.758 198.02 149.043 198.012 145.671C198.004 142.354 195.321 139.671 191.992 139.647C188.572 139.623 185.873 142.298 185.881 145.707C185.893 149.043 188.547 151.718 191.876 151.738Z" fill="#030303"/>
<path d="M85.0941 62.7058C84.8535 64.2537 83.9311 64.9315 82.3872 64.8914C81.0357 64.8553 79.6802 64.9074 78.3327 64.8713C75.1726 64.7791 72.6702 62.782 72.2933 59.678C71.5072 53.2094 72.8707 47.4186 78.2445 43.1316C79.0185 42.514 79.8767 41.9967 80.6948 41.4352C80.1294 40.6372 79.5118 39.8712 79.0065 39.0371C75.3652 33.0176 78.5974 25.1735 85.447 23.3649C85.7117 23.2967 86.0726 23.4411 86.1969 23.04C87.4 23.04 88.6031 23.04 89.8062 23.04C90.143 23.6296 90.7847 23.3649 91.2699 23.5173C98.4042 25.7831 100.995 34.4894 96.1946 40.3484C95.4968 41.1986 95.3885 41.4593 96.4512 42.133C101.256 45.1969 103.822 49.6202 103.979 55.3629C104.011 56.566 104.019 57.7691 103.971 58.9682C103.838 62.1925 101.332 64.7149 98.1035 64.8553C96.7039 64.9154 95.2963 64.8352 93.8967 64.8954C92.2886 64.9636 91.3381 64.2577 91.0133 62.6897C91.6188 60.6806 91.8915 60.5041 94.6105 60.2996C95.5609 60.3196 96.5114 60.3477 97.4578 60.3638C98.8213 60.3838 99.491 59.7101 99.475 58.3426C99.4589 57.0914 99.499 55.8361 99.4268 54.5849C99.11 49.2673 94.3458 44.5271 89.2006 44.3707C86.9428 43.9737 84.8374 44.475 82.8443 45.5057C78.1844 47.9198 75.5376 53.6947 76.6966 58.8679C76.9091 59.8103 77.4746 60.3517 78.4771 60.3517C79.7765 60.3557 81.0718 60.3397 82.3711 60.3638C84.0795 60.4079 84.7131 60.9613 85.0941 62.7058ZM88.0778 39.6667C91.4263 39.6627 94.0851 37.0359 94.1293 33.6914C94.1694 30.3107 91.4504 27.5516 88.0697 27.5516C84.7733 27.5516 82.0383 30.2586 82.0022 33.547C81.9661 36.9236 84.6891 39.6667 88.0778 39.6667Z" fill="#040303"/>
<path d="M189.004 62.6859C188.627 64.3943 187.545 65.0279 185.84 64.9036C184.449 64.8033 183.037 64.9236 181.641 64.8354C178.914 64.663 176.376 62.4493 176.139 59.7544C175.883 56.875 175.794 53.9635 176.661 51.1283C177.868 47.1822 180.234 44.1464 183.739 41.9928C184.34 41.6239 184.769 41.4835 184.076 40.6414C178.963 34.4254 181.3 26.2164 188.908 23.4653C189.165 23.3731 189.538 23.4333 189.61 23.0322C190.913 23.0322 192.216 23.0322 193.52 23.0322C193.941 23.5816 194.607 23.345 195.148 23.5215C202.346 25.8555 204.877 34.6661 199.944 40.477C199.299 41.2389 199.259 41.4595 200.169 42.033C205.013 45.0567 207.564 49.4921 207.857 55.1907C207.933 56.6865 208.025 58.1944 207.748 59.6862C207.195 62.71 204.873 64.7552 201.825 64.8635C200.426 64.9116 199.022 64.8555 197.618 64.8916C196.07 64.9317 195.156 64.2419 194.915 62.702C195.337 60.7931 195.754 60.4963 198.324 60.3078C199.323 60.3279 200.321 60.3519 201.324 60.372C202.703 60.4001 203.345 59.6622 203.369 58.3428C203.397 56.7427 203.413 55.1426 203.149 53.5505C202.33 48.6018 197.759 44.4913 192.91 44.3669C190.147 43.9539 187.669 44.7279 185.427 46.2798C181.545 48.9667 179.516 54.3726 180.591 59.0125C180.799 59.9068 181.401 60.3559 182.315 60.364C183.514 60.376 184.709 60.368 185.908 60.376C187.893 60.384 188.411 60.777 189.004 62.6859ZM191.988 39.6669C195.312 39.6428 197.999 36.9599 198.011 33.6434C198.027 30.2989 195.236 27.5278 191.884 27.5518C188.567 27.5759 185.896 30.2708 185.884 33.5953C185.872 37 188.571 39.6869 191.988 39.6669Z" fill="#030404"/>
<path d="M76.8728 176.971C73.1393 175.483 72.0204 172.624 72.0725 168.766C72.1608 162.02 74.8597 156.927 80.827 153.467C78.3687 150.852 77.0934 147.824 77.6027 144.231C77.9917 141.492 79.275 139.218 81.4245 137.474C85.6514 134.045 91.8352 134.422 95.6209 138.264C99.1179 141.809 100.237 148.349 95.3643 153.434C96.1543 153.968 96.9724 154.445 97.7103 155.031C101.701 158.199 103.862 162.305 103.974 167.438C103.986 167.988 103.938 168.545 103.99 169.091C104.359 172.957 102.807 175.619 99.1219 176.975C96.9162 176.975 94.7146 176.975 92.5089 176.975C91.8192 176.385 91.1735 175.764 91.0131 174.809C91.5826 172.768 91.8954 172.559 94.6063 172.411C95.5527 172.427 96.4992 172.451 97.4416 172.459C98.781 172.467 99.4788 171.818 99.4708 170.454C99.4628 169.307 99.4868 168.16 99.4387 167.017C99.2181 161.479 94.7387 156.855 89.1924 156.418C86.9226 155.981 84.8172 156.562 82.8361 157.577C78.1802 159.967 75.5094 165.866 76.6964 170.971C76.917 171.918 77.5145 172.443 78.501 172.451C79.7522 172.467 81.0034 172.451 82.2546 172.459C84.1114 172.475 84.733 172.993 85.0979 174.813C85.0057 175.86 84.3119 176.461 83.4938 176.967C81.2842 176.971 79.0785 176.971 76.8728 176.971ZM88.1458 151.738C91.4743 151.71 94.1251 149.031 94.1291 145.695C94.1331 142.294 91.4222 139.619 88.0014 139.651C84.6729 139.679 82.002 142.366 82.002 145.687C81.998 149.055 84.749 151.766 88.1458 151.738Z" fill="#040303"/>
<path d="M91.0091 174.81C91.1736 175.764 91.8152 176.386 92.505 176.975C89.4973 176.975 86.4936 176.975 83.4858 176.975C84.3039 176.47 84.9977 175.868 85.09 174.822C87.063 174.818 89.0361 174.814 91.0091 174.81Z" fill="#FDFDFD"/>
<path d="M159.015 162.967C157.973 162.51 156.974 162.101 155.999 161.631C154.664 160.99 154.179 159.895 154.656 158.712C155.161 157.453 156.368 156.919 157.748 157.489C160.467 158.612 163.17 159.783 165.853 160.99C167.264 161.627 167.677 162.65 167.108 164.05C165.993 166.773 164.842 169.483 163.651 172.174C163.046 173.542 161.774 174.035 160.583 173.482C159.392 172.928 158.987 171.733 159.549 170.31C159.893 169.427 160.278 168.561 160.663 167.643C160.106 167.358 159.685 167.703 159.248 167.839C144.125 172.571 129.295 171.854 114.762 165.489C114.309 165.289 113.827 165.084 113.466 164.759C112.568 163.961 112.372 162.951 113.017 161.924C113.695 160.853 114.73 160.549 115.893 161.058C118.363 162.137 120.853 163.163 123.444 163.925C135.054 167.338 146.619 167.214 158.129 163.428C158.317 163.364 158.506 163.296 158.686 163.211C158.767 163.179 158.839 163.103 159.015 162.967Z" fill="#040404"/>
<path d="M207.528 79.6812C209.609 86.0936 210.856 92.6505 210.9 99.4038C210.961 108.479 209.168 117.177 205.402 125.451C204.648 127.103 203.55 127.696 202.27 127.167C200.907 126.606 200.514 125.358 201.28 123.654C204.873 115.633 206.593 107.228 206.361 98.4453C206.204 92.5141 205.182 86.7273 203.056 80.8321C202.519 82.0312 202.11 82.9937 201.665 83.9361C200.987 85.3598 199.876 85.8651 198.653 85.3317C197.418 84.7943 196.933 83.5912 197.51 82.1956C198.621 79.5248 199.772 76.87 200.959 74.2312C201.649 72.6953 202.683 72.3103 204.259 72.968C206.838 74.0427 209.405 75.1416 211.959 76.2684C213.479 76.9382 214.04 78.1092 213.523 79.3564C212.99 80.6356 211.678 81.0327 210.106 80.399C209.324 80.0822 208.534 79.7734 207.748 79.4646C207.644 79.4285 207.544 79.3884 207.44 79.3524C207.468 79.4606 207.496 79.5689 207.528 79.6812Z" fill="#040404"/>
<path d="M72.4857 120.33C70.236 113.432 68.9888 106.37 69.1091 99.1034C69.2494 90.6016 71.038 82.4527 74.535 74.6888C74.7997 74.0993 75.0443 73.4817 75.6138 73.0967C76.504 72.4952 77.4104 72.4831 78.2605 73.1328C79.223 73.8707 79.4115 74.8773 78.9303 75.952C77.8234 78.4143 76.8168 80.9128 76.0589 83.5034C72.6381 95.1733 72.8306 106.787 76.6404 118.341C76.7005 118.529 76.8128 118.698 77.0053 119.091C77.5026 117.984 77.9116 117.025 78.3608 116.083C79.0345 114.659 80.1534 114.154 81.3685 114.683C82.5997 115.221 83.0889 116.424 82.5074 117.819C81.3966 120.49 80.2456 123.145 79.0586 125.784C78.3688 127.32 77.3382 127.701 75.7541 127.043C73.1274 125.948 70.5167 124.829 67.914 123.682C66.5264 123.073 65.9931 121.85 66.4944 120.651C66.9997 119.444 68.2348 118.994 69.6264 119.52C70.5127 119.853 71.3869 120.206 72.2692 120.55C72.3734 120.586 72.4737 120.627 72.578 120.663C72.5459 120.55 72.5138 120.442 72.4857 120.33Z" fill="#040404"/>
<path d="M119.683 32.4803C126.144 30.383 132.748 29.1358 139.554 29.1037C148.581 29.0636 157.223 30.8562 165.448 34.5898C167.197 35.3838 167.79 36.6831 167.044 38.0065C166.423 39.1093 165.244 39.4302 163.784 38.7845C160.03 37.1242 156.173 35.7808 152.154 34.9266C141.844 32.733 131.682 33.3105 121.676 36.627C121.488 36.6871 121.319 36.7994 120.926 36.9919C122.033 37.4892 122.991 37.8982 123.934 38.3474C125.353 39.0251 125.859 40.136 125.325 41.3631C124.792 42.5943 123.589 43.0795 122.189 42.498C119.519 41.3872 116.864 40.2322 114.225 39.0492C112.737 38.3795 112.316 37.3609 112.918 35.8891C114.016 33.2142 115.155 30.5514 116.322 27.9046C116.94 26.509 118.151 25.9797 119.35 26.485C120.593 27.0063 121.018 28.2816 120.441 29.7614C120.116 30.5955 119.783 31.4297 119.454 32.2598C119.418 32.36 119.378 32.4643 119.342 32.5646C119.462 32.5405 119.575 32.5124 119.683 32.4803Z" fill="#040404"/>
<path d="M94.6021 60.3038C91.8831 60.5083 91.6144 60.6848 91.0049 62.6939C89.0318 62.6979 87.0628 62.7019 85.0897 62.71C84.7087 60.9655 84.0791 60.4121 82.3627 60.376C81.0634 60.3519 79.7681 60.3679 78.4687 60.3639C77.4662 60.3599 76.9007 59.8226 76.6882 58.8801C75.5292 53.7069 78.172 47.9321 82.8359 45.5179C84.825 44.4872 86.9344 43.9859 89.1922 44.383C90.3953 45.6181 91.7187 46.733 92.6371 48.2368C94.9269 51.9985 95.332 56.0529 94.6021 60.3038Z" fill="#FB7F86"/>
<path d="M189.004 62.686C188.411 60.7771 187.889 60.3841 185.904 60.372C184.705 60.364 183.51 60.372 182.311 60.36C181.397 60.352 180.795 59.9028 180.587 59.0085C179.512 54.3686 181.541 48.9588 185.423 46.2759C187.665 44.7239 190.143 43.9499 192.906 44.363C198.16 48.5056 199.451 53.9957 198.324 60.3039C195.754 60.4964 195.337 60.7891 194.916 62.698C192.946 62.694 190.977 62.69 189.004 62.686Z" fill="#5FB5FC"/>
<path d="M198.32 172.415C193.079 172.431 187.833 172.443 182.592 172.463C181.577 172.467 180.707 172.122 180.611 171.06C180.202 166.468 180.723 162.121 184.621 158.969C187.208 156.875 190.127 155.792 193.52 156.53C193.544 157.284 194.178 157.617 194.619 158.058C198.697 162.113 199.203 167.081 198.32 172.415Z" fill="#00F0A5"/>
<path d="M191.876 151.738C188.547 151.718 185.888 149.043 185.88 145.707C185.872 142.298 188.571 139.623 191.992 139.647C195.321 139.671 198.003 142.354 198.011 145.671C198.02 149.043 195.272 151.762 191.876 151.738Z" fill="#FACFA2"/>
<path d="M198.32 172.415C199.202 167.086 198.697 162.113 194.614 158.059C194.169 157.618 193.54 157.285 193.516 156.531C197.955 156.687 202.334 160.838 203.152 165.63C203.425 167.222 203.397 168.822 203.373 170.418C203.353 171.734 202.683 172.468 201.324 172.46C200.321 172.456 199.323 172.432 198.32 172.415Z" fill="#0DCD8D"/>
<path d="M88.0775 39.6667C84.6888 39.6707 81.9618 36.9277 82.0019 33.551C82.038 30.2586 84.777 27.5557 88.0695 27.5557C91.4461 27.5557 94.1691 30.3107 94.129 33.6954C94.0889 37.036 91.4301 39.6627 88.0775 39.6667Z" fill="#FACFA2"/>
<path d="M94.6023 60.3037C95.3321 56.0568 94.9271 51.9984 92.6372 48.2328C91.7189 46.7289 90.3955 45.6141 89.1924 44.3789C94.3416 44.5353 99.1018 49.2715 99.4186 54.5931C99.4948 55.8403 99.4507 57.0955 99.4667 58.3507C99.4868 59.7182 98.8171 60.392 97.4496 60.3719C96.5031 60.3519 95.5527 60.3238 94.6023 60.3037Z" fill="#FB636E"/>
<path d="M191.988 39.6669C188.575 39.6909 185.872 37.0041 185.884 33.5993C185.896 30.2748 188.567 27.5799 191.884 27.5558C195.236 27.5318 198.027 30.3029 198.011 33.6474C197.995 36.9559 195.312 39.6428 191.988 39.6669Z" fill="#FACFA2"/>
<path d="M198.324 60.3037C199.451 53.9955 198.16 48.5054 192.906 44.3628C197.759 44.4871 202.326 48.6017 203.144 53.5463C203.409 55.1384 203.389 56.7385 203.365 58.3386C203.341 59.654 202.699 60.3959 201.32 60.3678C200.325 60.3478 199.323 60.3277 198.324 60.3037Z" fill="#26A4FB"/>
<path d="M91.0092 174.81C89.0362 174.814 87.0631 174.818 85.0941 174.822C84.7291 173.001 84.1075 172.48 82.2508 172.468C80.9996 172.455 79.7484 172.472 78.4972 172.459C77.5106 172.447 76.9131 171.922 76.6925 170.98C75.5055 165.879 78.1803 159.979 82.8323 157.585C84.8093 156.571 86.9187 155.989 89.1886 156.426C89.4171 157.18 90.2032 157.345 90.6804 157.842C94.6706 161.989 95.4807 166.969 94.5985 172.415C91.8915 172.56 91.5787 172.768 91.0092 174.81Z" fill="#FDDF76"/>
<path d="M88.1457 151.738C84.749 151.766 81.9979 149.055 82.002 145.687C82.006 142.366 84.6768 139.679 88.0014 139.651C91.4221 139.619 94.1291 142.294 94.1291 145.695C94.125 149.035 91.4743 151.71 88.1457 151.738Z" fill="#FACFA2"/>
<path d="M94.6023 172.411C95.4845 166.965 94.6704 161.985 90.6842 157.838C90.203 157.341 89.417 157.176 89.1924 156.422C94.7426 156.859 99.2181 161.479 99.4387 167.022C99.4828 168.164 99.4587 169.315 99.4707 170.458C99.4828 171.822 98.781 172.472 97.4415 172.464C96.4951 172.451 95.5487 172.427 94.6023 172.411Z" fill="#FBCE5A"/>
<path d="M117.926 118.084C118.139 118.104 118.279 118.208 118.323 118.425C118.191 118.309 118.059 118.196 117.926 118.084Z" fill="#26A4FB"/>
<path d="M158.426 78.3176C158.205 78.2735 158.101 78.1292 158.081 77.9126C158.197 78.0449 158.314 78.1813 158.426 78.3176Z" fill="#26A4FB"/>
<path d="M207.528 79.6819C207.5 79.5736 207.468 79.4613 207.44 79.353C207.544 79.3891 207.644 79.4292 207.749 79.4653C207.673 79.5375 207.6 79.6097 207.528 79.6819Z" fill="#FDFDFD"/>
<path d="M72.4852 120.33C72.5133 120.438 72.5454 120.55 72.5734 120.658C72.4692 120.622 72.3689 120.582 72.2646 120.546C72.3408 120.474 72.413 120.402 72.4852 120.33Z" fill="#FDFDFD"/>
<path d="M119.683 32.4808C119.575 32.5089 119.462 32.537 119.354 32.565C119.39 32.4648 119.43 32.3605 119.466 32.2603C119.538 32.3364 119.611 32.4086 119.683 32.4808Z" fill="#FDFDFD"/>
<defs>
<clipPath id="clip0_643_315">
<rect width="280" height="199" fill="white"/>
</clipPath>
</defs>
</svg>
