<svg width="28" height="25" viewBox="0 0 28 25" fill="none" xmlns="http://www.w3.org/2000/svg">
<path d="M0 11.6386V10.9897C0.124922 10.5477 0.333859 10.159 0.697666 9.85837C4.2958 6.88671 7.89369 3.91433 11.4913 0.941229C13.0189 -0.31627 14.9979 -0.311948 16.5225 0.946272C20.109 3.90447 23.6886 6.87036 27.2614 9.84394C27.4979 10.0403 27.6896 10.2838 27.8239 10.5585C28.3945 11.7677 27.5069 13.1607 26.1525 13.2105C25.8091 13.2228 25.465 13.2105 25.0925 13.2105V13.5631C25.0925 16.6751 25.0735 19.7878 25.102 22.8999C25.1129 24.1062 24.2465 25.0233 22.9929 24.9952C21.3346 24.9577 19.6755 24.9858 18.0172 24.9858H17.6892V24.6397C17.6892 23.0741 17.6892 21.509 17.6892 19.9443C17.6892 19.405 17.7046 18.8627 17.6695 18.3263C17.5234 16.099 15.3318 14.5264 13.1307 15.0629C11.4366 15.4767 10.3166 16.9044 10.3101 18.6803C10.3035 20.6769 10.3101 22.6742 10.3101 24.6707V24.9815C10.2173 24.9902 10.172 24.9974 10.1274 24.9974C8.38632 24.9974 6.64569 24.9974 4.90555 24.9974C4.72347 24.9985 4.54193 24.9776 4.36496 24.9354C3.46347 24.7126 2.90608 23.9713 2.90608 22.9943C2.90608 19.8463 2.90608 16.6977 2.90608 13.5487V13.2083C2.52254 13.2083 2.17554 13.2184 1.83292 13.2083C1.44761 13.1986 1.07483 13.0712 0.765926 12.8437C0.457027 12.6161 0.227209 12.2997 0.108122 11.9379L0 11.6386Z" fill="#ECBC39"/>
</svg>
