<svg width="57" height="56" viewBox="0 0 57 56" fill="none" xmlns="http://www.w3.org/2000/svg">
<path d="M18.879 4.66699H38.479C45.9457 4.66699 52.0123 10.7337 52.0123 18.2003V37.8003C52.0123 41.3896 50.5865 44.8318 48.0485 47.3698C45.5105 49.9078 42.0683 51.3336 38.479 51.3336H18.879C11.4124 51.3336 5.3457 45.267 5.3457 37.8003V18.2003C5.3457 14.6111 6.77153 11.1688 9.30952 8.63081C11.8475 6.09282 15.2898 4.66699 18.879 4.66699ZM18.4124 9.33366C16.1845 9.33366 14.048 10.2187 12.4727 11.794C10.8974 13.3693 10.0124 15.5058 10.0124 17.7337V38.267C10.0124 42.9103 13.769 46.667 18.4124 46.667H38.9457C41.1735 46.667 43.3101 45.782 44.8854 44.2067C46.4607 42.6314 47.3457 40.4948 47.3457 38.267V17.7337C47.3457 13.0903 43.589 9.33366 38.9457 9.33366H18.4124ZM40.929 12.8337C41.7026 12.8337 42.4444 13.1409 42.9914 13.6879C43.5384 14.2349 43.8457 14.9768 43.8457 15.7503C43.8457 16.5239 43.5384 17.2657 42.9914 17.8127C42.4444 18.3597 41.7026 18.667 40.929 18.667C40.1555 18.667 39.4136 18.3597 38.8666 17.8127C38.3196 17.2657 38.0124 16.5239 38.0124 15.7503C38.0124 14.9768 38.3196 14.2349 38.8666 13.6879C39.4136 13.1409 40.1555 12.8337 40.929 12.8337ZM28.679 16.3337C31.7732 16.3337 34.7407 17.5628 36.9286 19.7507C39.1165 21.9387 40.3457 24.9061 40.3457 28.0003C40.3457 31.0945 39.1165 34.062 36.9286 36.2499C34.7407 38.4378 31.7732 39.667 28.679 39.667C25.5848 39.667 22.6174 38.4378 20.4295 36.2499C18.2415 34.062 17.0124 31.0945 17.0124 28.0003C17.0124 24.9061 18.2415 21.9387 20.4295 19.7507C22.6174 17.5628 25.5848 16.3337 28.679 16.3337ZM28.679 21.0003C26.8225 21.0003 25.042 21.7378 23.7293 23.0506C22.4165 24.3633 21.679 26.1438 21.679 28.0003C21.679 29.8568 22.4165 31.6373 23.7293 32.9501C25.042 34.2628 26.8225 35.0003 28.679 35.0003C30.5355 35.0003 32.316 34.2628 33.6288 32.9501C34.9415 31.6373 35.679 29.8568 35.679 28.0003C35.679 26.1438 34.9415 24.3633 33.6288 23.0506C32.316 21.7378 30.5355 21.0003 28.679 21.0003Z" fill="white"/>
</svg>
