<svg width="57" height="56" viewBox="0 0 57 56" fill="none" xmlns="http://www.w3.org/2000/svg">
<path d="M18.88 4.66675H38.48C45.9467 4.66675 52.0133 10.7334 52.0133 18.2001V37.8001C52.0133 41.3893 50.5875 44.8316 48.0495 47.3696C45.5115 49.9076 42.0693 51.3334 38.48 51.3334H18.88C11.4133 51.3334 5.34668 45.2667 5.34668 37.8001V18.2001C5.34668 14.6108 6.77251 11.1686 9.3105 8.63057C11.8485 6.09258 15.2907 4.66675 18.88 4.66675ZM18.4133 9.33341C16.1855 9.33341 14.049 10.2184 12.4736 11.7937C10.8983 13.369 10.0133 15.5056 10.0133 17.7334V38.2667C10.0133 42.9101 13.77 46.6667 18.4133 46.6667H38.9467C41.1745 46.6667 43.3111 45.7817 44.8864 44.2064C46.4617 42.6311 47.3467 40.4945 47.3467 38.2667V17.7334C47.3467 13.0901 43.59 9.33341 38.9467 9.33341H18.4133ZM40.93 12.8334C41.7035 12.8334 42.4454 13.1407 42.9924 13.6877C43.5394 14.2347 43.8467 14.9765 43.8467 15.7501C43.8467 16.5236 43.5394 17.2655 42.9924 17.8125C42.4454 18.3595 41.7035 18.6667 40.93 18.6667C40.1564 18.6667 39.4146 18.3595 38.8676 17.8125C38.3206 17.2655 38.0133 16.5236 38.0133 15.7501C38.0133 14.9765 38.3206 14.2347 38.8676 13.6877C39.4146 13.1407 40.1564 12.8334 40.93 12.8334ZM28.68 16.3334C31.7742 16.3334 34.7417 17.5626 36.9296 19.7505C39.1175 21.9384 40.3467 24.9059 40.3467 28.0001C40.3467 31.0943 39.1175 34.0617 36.9296 36.2496C34.7417 38.4376 31.7742 39.6667 28.68 39.6667C25.5858 39.6667 22.6184 38.4376 20.4304 36.2496C18.2425 34.0617 17.0133 31.0943 17.0133 28.0001C17.0133 24.9059 18.2425 21.9384 20.4304 19.7505C22.6184 17.5626 25.5858 16.3334 28.68 16.3334ZM28.68 21.0001C26.8235 21.0001 25.043 21.7376 23.7303 23.0503C22.4175 24.3631 21.68 26.1436 21.68 28.0001C21.68 29.8566 22.4175 31.6371 23.7303 32.9498C25.043 34.2626 26.8235 35.0001 28.68 35.0001C30.5365 35.0001 32.317 34.2626 33.6297 32.9498C34.9425 31.6371 35.68 29.8566 35.68 28.0001C35.68 26.1436 34.9425 24.3631 33.6297 23.0503C32.317 21.7376 30.5365 21.0001 28.68 21.0001Z" fill="#14A594"/>
</svg>
