<svg width="54" height="45" viewBox="0 0 54 45" fill="none" xmlns="http://www.w3.org/2000/svg">
<g clip-path="url(#clip0_731_494)">
<path d="M49.9334 3.248C49.6636 4.44211 49.39 5.63622 49.1318 6.83033C47.182 15.9316 45.227 25.0341 43.2669 34.1379C43.1243 34.8038 43.001 35.4736 42.8238 36.1319C42.2496 38.2981 40.6581 38.8454 38.8278 37.5173C35.6988 35.2439 32.5711 32.9693 29.4447 30.6933C28.5314 30.0274 28.5314 30.0274 27.726 30.789C26.2052 32.2357 24.6844 33.6799 23.1636 35.1215C22.927 35.3635 22.6427 35.5543 22.3284 35.6821C22.014 35.8099 21.6766 35.8718 21.337 35.864C21.3794 35.2248 21.418 34.5971 21.4642 33.9733C21.6607 31.1947 21.8496 28.4161 22.0769 25.6375C22.1088 25.3997 22.2233 25.1804 22.4006 25.0175C28.7202 19.3659 35.0437 13.7207 41.371 8.08184C41.433 8.04153 41.4888 7.99254 41.5367 7.9364C41.66 7.71825 41.7679 7.49245 41.8835 7.27046C41.6223 7.17879 41.3475 7.13093 41.0705 7.12886C40.7657 7.20099 40.4778 7.33095 40.2227 7.51158C32.3746 12.385 24.529 17.2635 16.686 22.147C16.5279 22.2598 16.3445 22.3323 16.1517 22.3583C15.9589 22.3844 15.7626 22.3631 15.58 22.2963C12.3316 21.2706 9.06772 20.2793 5.81543 19.2575C5.37732 19.118 4.96386 18.9114 4.59004 18.6451C3.97349 18.205 3.90413 17.5696 4.45902 17.0568C4.90089 16.6392 5.41529 16.3047 5.97727 16.0693C9.0369 14.8676 12.1158 13.7117 15.187 12.5406C25.7017 8.54749 36.2151 4.55183 46.7273 0.553613C47.0311 0.431774 47.3499 0.350686 47.6752 0.312493C48.8313 0.20533 49.5519 0.729665 49.8447 1.8434C49.8691 1.92805 49.8987 2.01113 49.9334 2.09217V3.248Z" fill="#14A594"/>
</g>
<defs>
<clipPath id="clip0_731_494">
<rect width="52.4015" height="44.5332" fill="white" transform="translate(0.806641 0.298828)"/>
</clipPath>
</defs>
</svg>
