<svg width="57" height="56" viewBox="0 0 57 56" fill="none" xmlns="http://www.w3.org/2000/svg">
<path d="M39.4124 13.58C37.8174 11.7591 36.9384 9.42068 36.9391 7H29.7291V35.9333C29.6735 37.4991 29.0124 38.9821 27.8852 40.0702C26.7579 41.1583 25.2525 41.7664 23.6857 41.7667C20.3724 41.7667 17.6191 39.06 17.6191 35.7C17.6191 31.6867 21.4924 28.6767 25.4824 29.9133V22.54C17.4324 21.4667 10.3857 27.72 10.3857 35.7C10.3857 43.47 16.8257 49 23.6624 49C30.9891 49 36.9391 43.05 36.9391 35.7V21.0233C39.8627 23.123 43.3729 24.2495 46.9724 24.2433V17.0333C46.9724 17.0333 42.5857 17.2433 39.4124 13.58Z" fill="white"/>
</svg>
