<svg width="57" height="56" viewBox="0 0 57 56" fill="none" xmlns="http://www.w3.org/2000/svg">
<path d="M39.4134 13.58C37.8184 11.7591 36.9394 9.42068 36.9401 7H29.7301V35.9333C29.6744 37.4991 29.0134 38.9821 27.8862 40.0702C26.7589 41.1583 25.2534 41.7664 23.6867 41.7667C20.3734 41.7667 17.6201 39.06 17.6201 35.7C17.6201 31.6867 21.4934 28.6767 25.4834 29.9133V22.54C17.4334 21.4667 10.3867 27.72 10.3867 35.7C10.3867 43.47 16.8267 49 23.6634 49C30.9901 49 36.9401 43.05 36.9401 35.7V21.0233C39.8637 23.123 43.3739 24.2495 46.9734 24.2433V17.0333C46.9734 17.0333 42.5867 17.2433 39.4134 13.58Z" fill="#14A594"/>
</svg>
