<svg width="46" height="38" viewBox="0 0 46 38" fill="none" xmlns="http://www.w3.org/2000/svg">
<path d="M45.7683 4.66254C44.1161 5.39994 42.3412 5.89819 40.4753 6.1234C42.4005 4.96306 43.8409 3.13683 44.5276 0.985453C42.7188 2.06763 40.7391 2.82937 38.6746 3.23754C37.2863 1.74452 35.4475 0.754915 33.4436 0.422379C31.4397 0.0898428 29.3828 0.432977 27.5924 1.39851C25.8019 2.36404 24.3781 3.89795 23.5418 5.76208C22.7056 7.62622 22.5037 9.71628 22.9677 11.7078C19.3025 11.5224 15.717 10.5629 12.4438 8.89149C9.17062 7.22007 6.28294 4.87411 3.96817 2.00587C3.17669 3.38104 2.72159 4.97544 2.72159 6.67347C2.72071 8.20209 3.09444 9.7073 3.80964 11.0555C4.52483 12.4038 5.55937 13.5534 6.82146 14.4023C5.35777 14.3554 3.92637 13.9571 2.6464 13.2404V13.36C2.64625 15.5039 3.38254 17.5819 4.73034 19.2413C6.07813 20.9007 7.95441 22.0394 10.0408 22.464C8.683 22.8341 7.25943 22.8887 5.87762 22.6234C6.46628 24.4682 7.61294 26.0813 9.15706 27.2371C10.7012 28.3928 12.5655 29.0333 14.4889 29.0688C11.2237 31.6506 7.19126 33.051 3.04016 33.0448C2.30484 33.045 1.57014 33.0018 0.839844 32.9153C5.05344 35.6441 9.95838 37.0923 14.9678 37.0866C31.9253 37.0866 41.1955 22.9403 41.1955 10.6714C41.1955 10.2728 41.1856 9.87024 41.1678 9.47164C42.971 8.1582 44.5275 6.53176 45.7643 4.66851L45.7683 4.66254Z" fill="#14A594"/>
</svg>
